<svg width="12" height="12" viewBox="0 0 12 12" fill="none" xmlns="http://www.w3.org/2000/svg">
<path d="M4.73401 10.3145C4.56961 10.4224 4.34381 10.4046 4.19983 10.2607C4.05588 10.1168 4.03818 9.89102 4.14612 9.72656L4.19983 9.66016L7.45959 6.39941C7.67985 6.17892 7.68 5.82099 7.45959 5.60059L4.19983 2.34082L4.14612 2.27441C4.03794 2.10995 4.05585 1.88429 4.19983 1.74023L4.2008 1.73828C4.28391 1.66079 4.39081 1.61533 4.49963 1.61523C4.58037 1.61523 4.66178 1.63749 4.73303 1.68457L4.80041 1.74023L8.06018 5C8.60971 5.54953 8.60971 6.45145 8.06018 7.00098L4.80042 10.2607L4.73401 10.3145Z" fill="#0079FF" stroke="#0079FF" stroke-width="0.1"/>
</svg>
