<svg width="10" height="6" viewBox="0 0 10 6" fill="none" xmlns="http://www.w3.org/2000/svg">
<path d="M9.4021 1.0127C9.64466 1.25525 9.64452 1.65383 9.4021 1.89648L6.14136 5.15625L6.02417 5.26367C5.7381 5.49856 5.37767 5.62988 4.99976 5.62988C4.57011 5.62982 4.1598 5.4648 3.8562 5.15527L3.85718 5.1543L0.598389 1.89648L0.592529 1.89063C0.484223 1.77458 0.414871 1.62005 0.414795 1.45508C0.414795 1.29735 0.474034 1.13705 0.598389 1.0127C0.841044 0.770318 1.23963 0.770149 1.48218 1.0127L4.74194 4.27344L4.79858 4.31934C4.92013 4.39976 5.07932 4.39962 5.20093 4.31934L5.25854 4.27344L8.51831 1.0127C8.76096 0.770279 9.15954 0.770136 9.4021 1.0127Z" fill="#222222" stroke="#222222" stroke-width="0.5"/>
</svg>
