<svg width="10" height="5" viewBox="0 0 10 5" fill="none" xmlns="http://www.w3.org/2000/svg">
<path d="M0.665967 0.455781C0.665967 0.360781 0.700967 0.265781 0.775967 0.190781C0.920967 0.0457809 1.16097 0.0457809 1.30597 0.190781L4.56597 3.45078C4.80597 3.69078 5.19597 3.69078 5.43597 3.45078L8.69597 0.190781C8.84097 0.0457812 9.08097 0.0457812 9.22597 0.190781C9.37097 0.335781 9.37097 0.575781 9.22597 0.720781L5.96597 3.98078C5.71097 4.23578 5.36597 4.38078 5.00097 4.38078C4.63597 4.38078 4.29097 4.24078 4.03597 3.98078L0.775967 0.720781C0.705967 0.645781 0.665967 0.550781 0.665967 0.455781Z" fill="#222222"/>
</svg>
