<svg width="14" height="12" viewBox="0 0 14 12" fill="none" xmlns="http://www.w3.org/2000/svg">
<path d="M1.16632 6.92222L1.0276 6.44185L0.666316 6.54617L0.666319 6.92222L1.16632 6.92222ZM1.54195 6.81375L1.68067 7.29412L1.68067 7.29412L1.54195 6.81375ZM12.4573 6.81369L12.596 6.33333L12.596 6.33332L12.4573 6.81369ZM12.833 6.92222H13.333C13.333 6.69952 13.1857 6.50366 12.9718 6.44186L12.833 6.92222ZM1.78731 1.70614L1.30717 1.84566L1.30717 1.84567L1.78731 1.70614ZM1.7219 1.48104H1.2219V1.55222L1.24176 1.62057L1.7219 1.48104ZM1.7219 1.33398V0.833984H1.2219V1.33398H1.7219ZM12.2775 1.33398H12.7775V0.833984H12.2775V1.33398ZM12.2775 1.48104L12.7576 1.62053L12.7775 1.5522V1.48104H12.2775ZM12.2121 1.70614L12.6922 1.84567L12.6922 1.84562L12.2121 1.70614ZM3.94412 3.09869V2.59869H3.44412V3.09869H3.94412ZM10.0552 3.09869H10.5552V2.59869H10.0552V3.09869ZM1.66634 9.56927L1.66632 6.92222L0.666319 6.92222L0.666341 9.56928L1.66634 9.56927ZM1.30503 7.40259L1.68067 7.29412L1.40324 6.33338L1.0276 6.44185L1.30503 7.40259ZM1.68067 7.29412C3.41444 6.79344 5.20316 6.53987 6.99967 6.53987V5.53987C5.10891 5.53987 3.22681 5.80676 1.40323 6.33338L1.68067 7.29412ZM6.99967 6.53987C8.79616 6.53987 10.5849 6.79344 12.3186 7.29406L12.596 6.33332C10.7725 5.80676 8.89041 5.53987 6.99967 5.53987V6.53987ZM12.3185 7.29405L12.6943 7.40258L12.9718 6.44186L12.596 6.33333L12.3185 7.29405ZM12.333 6.92222V9.56928H13.333V6.92222H12.333ZM1.16634 9.56928C0.666341 9.56923 0.666341 9.56912 0.666341 9.56902C0.666341 9.56899 0.666341 9.5689 0.666341 9.56885C0.666341 9.56874 0.666342 9.56867 0.666342 9.56862C0.666342 9.56852 0.666342 9.56853 0.666341 9.56863C0.666341 9.56885 0.666338 9.56947 0.66633 9.57048C0.666314 9.57251 0.666279 9.57611 0.666198 9.58118C0.666038 9.59132 0.6657 9.60727 0.664992 9.6282C0.663573 9.67017 0.660685 9.73155 0.65484 9.80574C0.642981 9.95625 0.619699 10.1495 0.575493 10.3367C0.529526 10.5314 0.469866 10.68 0.406682 10.7693C0.377483 10.8105 0.356672 10.8258 0.349161 10.8304C0.345627 10.8325 0.343727 10.834 0.333008 10.834V11.834C0.750415 11.834 1.04269 11.6014 1.22273 11.3472C1.3939 11.1056 1.4905 10.8131 1.54872 10.5666C1.60871 10.3126 1.63754 10.0647 1.65175 9.88429C1.65894 9.79303 1.66258 9.71655 1.66442 9.66201C1.66534 9.63469 1.66582 9.61273 1.66607 9.59702C1.6662 9.58916 1.66626 9.58285 1.6663 9.5782C1.66632 9.57587 1.66633 9.57396 1.66633 9.57248C1.66634 9.57174 1.66634 9.57111 1.66634 9.57058C1.66634 9.57032 1.66634 9.57008 1.66634 9.56987C1.66634 9.56977 1.66634 9.56963 1.66634 9.56958C1.66634 9.56945 1.66634 9.56933 1.16634 9.56928ZM1.16634 10.0693H12.833V9.06928H1.16634V10.0693ZM12.833 9.56928C12.333 9.56933 12.333 9.56945 12.333 9.56958C12.333 9.56963 12.333 9.56977 12.333 9.56987C12.333 9.57008 12.333 9.57031 12.333 9.57058C12.333 9.5711 12.333 9.57174 12.333 9.57248C12.333 9.57396 12.333 9.57587 12.333 9.5782C12.3331 9.58284 12.3332 9.58915 12.3333 9.59701C12.3335 9.61272 12.334 9.63468 12.3349 9.66201C12.3368 9.71655 12.3404 9.79303 12.3476 9.88428C12.3618 10.0647 12.3906 10.3126 12.4506 10.5666C12.5088 10.8131 12.6054 11.1056 12.7766 11.3472C12.9567 11.6014 13.2489 11.834 13.6663 11.834V10.834C13.6556 10.834 13.6537 10.8325 13.6502 10.8304C13.6427 10.8258 13.6219 10.8105 13.5927 10.7693C13.5295 10.68 13.4698 10.5314 13.4239 10.3367C13.3796 10.1495 13.3564 9.95626 13.3445 9.80575C13.3387 9.73155 13.3358 9.67017 13.3344 9.62821C13.3336 9.60728 13.3333 9.59132 13.3331 9.58118C13.3331 9.57612 13.333 9.57252 13.333 9.57049C13.333 9.56947 13.333 9.56885 13.333 9.56864C13.333 9.56853 13.333 9.56853 13.333 9.56862C13.333 9.56867 13.333 9.56875 13.333 9.56885C13.333 9.5689 13.333 9.569 13.333 9.56902C13.333 9.56912 13.333 9.56923 12.833 9.56928ZM2.77745 5.15751C2.77745 3.94063 2.60562 2.73033 2.26745 1.56661L1.30717 1.84567C1.61887 2.91828 1.77745 4.03461 1.77745 5.15751H2.77745ZM2.26745 1.56661L2.20203 1.34152L1.24176 1.62057L1.30717 1.84566L2.26745 1.56661ZM2.2219 1.48104V1.33398H1.2219V1.48104H2.2219ZM1.7219 1.83398H12.2775V0.833984H1.7219V1.83398ZM11.7775 1.33398V1.48104H12.7775V1.33398H11.7775ZM11.7973 1.34156L11.7319 1.56666L12.6922 1.84562L12.7576 1.62053L11.7973 1.34156ZM11.7319 1.56661C11.3937 2.73032 11.2219 3.94063 11.2219 5.15751H12.2219C12.2219 4.03461 12.3805 2.91828 12.6922 1.84567L11.7319 1.56661ZM6.99967 2.59869H3.94412V3.59869H6.99967V2.59869ZM3.44412 3.09869V5.15751H4.44412V3.09869H3.44412ZM6.49967 3.09869V5.15751H7.49967V3.09869H6.49967ZM6.99967 3.59869H10.0552V2.59869H6.99967V3.59869ZM9.55523 3.09869V5.15751H10.5552V3.09869H9.55523Z" fill="#222222"/>
</svg>
