<svg width="20" height="17" viewBox="0 0 20 17" fill="none" xmlns="http://www.w3.org/2000/svg">
<path d="M1.25 13.3529L1.24997 9.38235L1.81342 9.21965C4.48142 8.44918 7.23454 8.05882 10 8.05882C12.7654 8.05882 15.5185 8.44918 18.1864 9.21956L18.75 9.38235V13.3529M1.25 13.3529C1.25 13.3529 1.24973 16 0 16M1.25 13.3529H18.75M18.75 13.3529C18.75 13.3529 18.7502 16 20 16M2.91667 6.73529C2.91667 4.98045 2.66886 3.23548 2.18145 1.55823L2.08333 1.22059V1H17.9167V1.22059L17.8186 1.55823C17.3312 3.23548 17.0833 4.98045 17.0833 6.73529M10 3.64706H5.41667V6.73529M10 3.64706V6.73529M10 3.64706H14.5833V6.73529" stroke="#222222" stroke-width="1.3"/>
</svg>
