<svg width="16" height="16" viewBox="0 0 16 16" fill="none" xmlns="http://www.w3.org/2000/svg">
<path d="M5.33331 3.83398C5.05998 3.83398 4.83331 3.60732 4.83331 3.33398V1.33398C4.83331 1.06065 5.05998 0.833984 5.33331 0.833984C5.60665 0.833984 5.83331 1.06065 5.83331 1.33398V3.33398C5.83331 3.60732 5.60665 3.83398 5.33331 3.83398Z" fill="#222222"/>
<path d="M10.6667 3.83398C10.3934 3.83398 10.1667 3.60732 10.1667 3.33398V1.33398C10.1667 1.06065 10.3934 0.833984 10.6667 0.833984C10.94 0.833984 11.1667 1.06065 11.1667 1.33398V3.33398C11.1667 3.60732 10.94 3.83398 10.6667 3.83398Z" fill="#222222"/>
<path d="M5.66667 9.66679C5.49333 9.66679 5.32 9.59345 5.19333 9.47345C5.07333 9.34679 5 9.18012 5 9.00012C5 8.91346 5.02 8.82679 5.05333 8.74679C5.08667 8.66679 5.13333 8.59346 5.19333 8.5268C5.44 8.28013 5.88667 8.28013 6.14 8.5268C6.26 8.65346 6.33333 8.82679 6.33333 9.00012C6.33333 9.04012 6.32667 9.0868 6.32 9.13347C6.31334 9.17347 6.3 9.21346 6.28 9.25346C6.26667 9.29346 6.24667 9.33346 6.22 9.37346C6.19333 9.40679 6.16667 9.44012 6.14 9.47345C6.01333 9.59345 5.84 9.66679 5.66667 9.66679Z" fill="#222222"/>
<path d="M7.99998 9.66753C7.91331 9.66753 7.82665 9.64753 7.74665 9.6142C7.65998 9.58087 7.59331 9.53419 7.52665 9.47419C7.40665 9.34752 7.33331 9.18086 7.33331 9.00086C7.33331 8.91419 7.35331 8.82752 7.38665 8.74752C7.41998 8.66752 7.46665 8.5942 7.52665 8.52753C7.59331 8.46753 7.65998 8.42085 7.74665 8.38752C7.99331 8.28752 8.28665 8.34086 8.47331 8.52753C8.59331 8.6542 8.66665 8.82753 8.66665 9.00086C8.66665 9.04086 8.65998 9.08753 8.65332 9.1342C8.64665 9.1742 8.63331 9.2142 8.61331 9.2542C8.59998 9.2942 8.57998 9.33419 8.55331 9.37419C8.53331 9.40752 8.49998 9.44085 8.47331 9.47419C8.34665 9.59419 8.17331 9.66753 7.99998 9.66753Z" fill="#222222"/>
<path d="M5.66667 12.0005C5.58 12.0005 5.49334 11.9805 5.41334 11.9472C5.32667 11.9138 5.25333 11.8672 5.19333 11.8072C5.13333 11.7472 5.08667 11.6738 5.05333 11.5872C5.02 11.5072 5 11.4205 5 11.3338C5 11.2472 5.02 11.1605 5.05333 11.0805C5.08667 10.9938 5.13333 10.9205 5.19333 10.8605C5.25333 10.8005 5.32667 10.7538 5.41334 10.7205C5.57334 10.6538 5.76 10.6472 5.92 10.7205C6.00666 10.7538 6.08 10.8005 6.14 10.8605C6.2 10.9205 6.24667 10.9938 6.28 11.0805C6.31333 11.1605 6.33333 11.2472 6.33333 11.3338C6.33333 11.4205 6.31333 11.5072 6.28 11.5872C6.24667 11.6738 6.2 11.7472 6.14 11.8072C6.08 11.8672 6.00666 11.9138 5.92 11.9472C5.84 11.9805 5.75333 12.0005 5.66667 12.0005Z" fill="#222222"/>
<path d="M13.6666 6.56055H2.33331C2.05998 6.56055 1.83331 6.33388 1.83331 6.06055C1.83331 5.78721 2.05998 5.56055 2.33331 5.56055H13.6666C13.94 5.56055 14.1666 5.78721 14.1666 6.06055C14.1666 6.33388 13.94 6.56055 13.6666 6.56055Z" fill="#222222"/>
<path d="M12 15.8333C11.22 15.8333 10.48 15.5533 9.91331 15.04C9.67331 14.84 9.45998 14.5867 9.28665 14.2933C8.99331 13.8133 8.83331 13.2467 8.83331 12.6667C8.83331 10.92 10.2533 9.5 12 9.5C12.9066 9.5 13.7733 9.89332 14.3733 10.5733C14.8866 11.16 15.1666 11.9 15.1666 12.6667C15.1666 13.2467 15.0066 13.8133 14.7066 14.3C14.1466 15.2467 13.1066 15.8333 12 15.8333ZM12 10.5C10.8066 10.5 9.83331 11.4733 9.83331 12.6667C9.83331 13.06 9.93998 13.4467 10.1466 13.78C10.26 13.98 10.4066 14.1467 10.5666 14.2867C10.9666 14.6467 11.4666 14.8333 12 14.8333C12.7666 14.8333 13.46 14.44 13.8533 13.7867C14.06 13.4467 14.1666 13.0667 14.1666 12.6667C14.1666 12.1467 13.9733 11.64 13.6266 11.2333C13.2133 10.7667 12.62 10.5 12 10.5Z" fill="#222222"/>
<path d="M11.6199 13.8257C11.4933 13.8257 11.3666 13.779 11.2666 13.679L10.6066 13.0191C10.4133 12.8257 10.4133 12.5057 10.6066 12.3124C10.7999 12.1191 11.1199 12.1191 11.3133 12.3124L11.6333 12.6324L12.6999 11.6457C12.8999 11.4591 13.2199 11.4724 13.4066 11.6724C13.5933 11.8724 13.5799 12.1924 13.3799 12.3791L11.9599 13.6924C11.8599 13.7791 11.7399 13.8257 11.6199 13.8257Z" fill="#222222"/>
<path d="M10.2467 15.1673H5.33333C2.9 15.1673 1.5 13.7673 1.5 11.334V5.66732C1.5 3.23398 2.9 1.83398 5.33333 1.83398H10.6667C13.1 1.83398 14.5 3.23398 14.5 5.66732V10.9073C14.5 11.114 14.3733 11.3006 14.1733 11.374C13.98 11.4473 13.76 11.394 13.62 11.234C13.2067 10.7673 12.6133 10.5007 11.9933 10.5007C10.8 10.5007 9.82667 11.474 9.82667 12.6673C9.82667 13.0607 9.93333 13.4473 10.14 13.7807C10.2533 13.9807 10.4 14.1473 10.56 14.2873C10.72 14.4206 10.78 14.6407 10.7067 14.8407C10.6467 15.034 10.46 15.1673 10.2467 15.1673ZM5.33333 2.83398C3.42667 2.83398 2.5 3.76065 2.5 5.66732V11.334C2.5 13.2407 3.42667 14.1673 5.33333 14.1673H9.21333C8.96667 13.714 8.83333 13.2007 8.83333 12.6673C8.83333 10.9207 10.2533 9.50065 12 9.50065C12.5267 9.50065 13.0467 9.63399 13.5 9.88066V5.66732C13.5 3.76065 12.5733 2.83398 10.6667 2.83398H5.33333Z" fill="#222222"/>
</svg>
