<svg width="16" height="16" viewBox="0 0 16 16" fill="none" xmlns="http://www.w3.org/2000/svg">
<path d="M5.33337 3.83398C5.06004 3.83398 4.83337 3.60732 4.83337 3.33398V1.33398C4.83337 1.06065 5.06004 0.833984 5.33337 0.833984C5.60671 0.833984 5.83337 1.06065 5.83337 1.33398V3.33398C5.83337 3.60732 5.60671 3.83398 5.33337 3.83398Z" fill="#292D32"/>
<path d="M10.6666 3.83398C10.3933 3.83398 10.1666 3.60732 10.1666 3.33398V1.33398C10.1666 1.06065 10.3933 0.833984 10.6666 0.833984C10.94 0.833984 11.1666 1.06065 11.1666 1.33398V3.33398C11.1666 3.60732 10.94 3.83398 10.6666 3.83398Z" fill="#292D32"/>
<path d="M5.66667 9.66595C5.58 9.66595 5.49333 9.64596 5.41333 9.61262C5.32666 9.57929 5.26001 9.53261 5.19334 9.47261C5.07334 9.34594 5 9.17261 5 8.99928C5 8.82595 5.07334 8.65262 5.19334 8.52595C5.26001 8.46595 5.33333 8.41927 5.41333 8.38594C5.57333 8.31927 5.76 8.31927 5.92 8.38594C6 8.41927 6.07333 8.46595 6.13999 8.52595C6.16666 8.55929 6.19999 8.59261 6.21999 8.62595C6.24666 8.66595 6.26668 8.70594 6.28001 8.74594C6.30001 8.78594 6.31334 8.82594 6.32001 8.86594C6.32667 8.91261 6.33333 8.95928 6.33333 8.99928C6.33333 9.17261 6.25999 9.34594 6.13999 9.47261C6.07333 9.53261 6 9.57929 5.92 9.61262C5.84 9.64596 5.75333 9.66595 5.66667 9.66595Z" fill="#292D32"/>
<path d="M8.00004 9.66679C7.91337 9.66679 7.8267 9.6468 7.7467 9.61347C7.66004 9.58013 7.59338 9.53345 7.52671 9.47345C7.40671 9.34679 7.33337 9.17346 7.33337 9.00012C7.33337 8.96012 7.34003 8.91345 7.3467 8.86678C7.35337 8.82678 7.3667 8.78679 7.3867 8.74679C7.40003 8.70679 7.42005 8.66679 7.44672 8.62679C7.47338 8.59346 7.50005 8.56013 7.52671 8.5268C7.77338 8.28013 8.22004 8.28013 8.47337 8.5268C8.50004 8.56013 8.5267 8.59346 8.55337 8.62679C8.58003 8.66679 8.60005 8.70679 8.61338 8.74679C8.63338 8.78679 8.64671 8.82678 8.65338 8.86678C8.66005 8.91345 8.66671 8.96012 8.66671 9.00012C8.66671 9.17346 8.59337 9.34679 8.47337 9.47345C8.3467 9.59345 8.18004 9.66679 8.00004 9.66679Z" fill="#292D32"/>
<path d="M5.66667 11.9999C5.58 11.9999 5.49333 11.9799 5.41333 11.9466C5.33333 11.9133 5.26001 11.8666 5.19334 11.8066C5.07334 11.6799 5 11.5066 5 11.3333C5 11.2933 5.00666 11.2466 5.01333 11.2066C5.01999 11.1599 5.03332 11.1199 5.05332 11.0799C5.06666 11.0399 5.08668 10.9999 5.11334 10.9599C5.13334 10.9266 5.16667 10.8933 5.19334 10.8599C5.26001 10.7999 5.33333 10.7533 5.41333 10.7199C5.57333 10.6533 5.76 10.6533 5.92 10.7199C6 10.7533 6.07333 10.7999 6.13999 10.8599C6.16666 10.8933 6.19999 10.9266 6.21999 10.9599C6.24666 10.9999 6.26668 11.0399 6.28001 11.0799C6.30001 11.1199 6.31334 11.1599 6.32001 11.2066C6.32667 11.2466 6.33333 11.2933 6.33333 11.3333C6.33333 11.5066 6.25999 11.6799 6.13999 11.8066C6.07333 11.8666 6 11.9133 5.92 11.9466C5.84 11.9799 5.75333 11.9999 5.66667 11.9999Z" fill="#292D32"/>
<path d="M13.6667 6.56055H2.33337C2.06004 6.56055 1.83337 6.33388 1.83337 6.06055C1.83337 5.78721 2.06004 5.56055 2.33337 5.56055H13.6667C13.94 5.56055 14.1667 5.78721 14.1667 6.06055C14.1667 6.33388 13.94 6.56055 13.6667 6.56055Z" fill="#292D32"/>
<path d="M10.5467 15.1871C10.2933 15.1871 10.0533 15.0937 9.88 14.9204C9.67333 14.7137 9.57999 14.4137 9.62666 14.1004L9.75333 13.2004C9.78666 12.9671 9.92667 12.6871 10.0933 12.5204L12.4533 10.1604C12.7733 9.84039 13.0867 9.67372 13.4267 9.64039C13.8467 9.60039 14.2533 9.77372 14.64 10.1604C15.0467 10.5671 15.5933 11.3937 14.64 12.3471L12.28 14.7071C12.1133 14.8737 11.8333 15.0137 11.6 15.0471L10.7 15.1737C10.6467 15.1804 10.6 15.1871 10.5467 15.1871ZM13.54 10.6337C13.5333 10.6337 13.5267 10.6337 13.52 10.6337C13.4267 10.6404 13.3 10.7271 13.16 10.8671L10.8 13.2271C10.78 13.2471 10.7467 13.3137 10.7467 13.3404L10.6267 14.1737L11.46 14.0537C11.4867 14.0471 11.5533 14.0137 11.5733 13.9937L13.9333 11.6337C14.2267 11.3404 14.2667 11.1937 13.9333 10.8604C13.8267 10.7604 13.6733 10.6337 13.54 10.6337Z" fill="#292D32"/>
<path d="M13.9467 12.8326C13.9 12.8326 13.8533 12.826 13.8133 12.8126C12.9333 12.566 12.2334 11.866 11.9867 10.986C11.9134 10.7193 12.0667 10.446 12.3333 10.366C12.6 10.2926 12.8733 10.446 12.9533 10.7126C13.1067 11.2593 13.54 11.6926 14.0867 11.846C14.3534 11.9193 14.5067 12.1993 14.4333 12.466C14.3667 12.686 14.1667 12.8326 13.9467 12.8326Z" fill="#292D32"/>
<path d="M8 15.1673H5.33333C2.9 15.1673 1.5 13.7673 1.5 11.334V5.66732C1.5 3.23398 2.9 1.83398 5.33333 1.83398H10.6667C13.1 1.83398 14.5 3.23398 14.5 5.66732V8.00065C14.5 8.27398 14.2733 8.50065 14 8.50065C13.7267 8.50065 13.5 8.27398 13.5 8.00065V5.66732C13.5 3.76065 12.5733 2.83398 10.6667 2.83398H5.33333C3.42667 2.83398 2.5 3.76065 2.5 5.66732V11.334C2.5 13.2407 3.42667 14.1673 5.33333 14.1673H8C8.27333 14.1673 8.5 14.394 8.5 14.6673C8.5 14.9407 8.27333 15.1673 8 15.1673Z" fill="#292D32"/>
</svg>
