<svg width="14" height="14" viewBox="0 0 14 14" fill="none" xmlns="http://www.w3.org/2000/svg">
<path d="M3.29395 0.677734C3.53462 0.677734 3.78156 0.732122 3.99219 0.831055H3.99121C4.2318 0.941891 4.43683 1.10942 4.58691 1.33301H4.58789L5.93164 3.22461H5.93262C6.05717 3.3963 6.1532 3.565 6.2207 3.73535H6.22168C6.30146 3.91912 6.3457 4.10702 6.3457 4.29102C6.34565 4.52968 6.27517 4.75931 6.14648 4.97461L6.14746 4.97559C6.05496 5.14177 5.91477 5.31576 5.74316 5.4873L5.74414 5.48828L5.39844 5.84766C5.46915 5.96619 5.60246 6.16208 5.84668 6.44824H5.8457C6.12135 6.76923 6.39171 7.05642 6.65723 7.33301H6.6582C6.91875 7.58874 7.13872 7.79831 7.34375 7.97852L7.54492 8.14941V8.15039L7.76855 8.33105C7.93569 8.46042 8.06069 8.53971 8.14844 8.58887L8.49414 8.24805L8.63281 8.11816C8.77023 7.99676 8.90631 7.90063 9.04102 7.83105C9.38825 7.61962 9.82528 7.58573 10.2559 7.76367H10.2568L10.501 7.88281C10.5853 7.92939 10.6728 7.98306 10.7627 8.0459V8.04688L12.6875 9.41211L12.8447 9.53613C12.9676 9.6461 13.0698 9.77345 13.1445 9.91699L13.1865 10.0049L13.1875 10.0078L13.2471 10.1777C13.2976 10.3452 13.3222 10.5066 13.3223 10.6689C13.3223 10.8888 13.2837 11.1083 13.2109 11.3193L13.127 11.5273C13.001 11.7967 12.8436 12.0302 12.6455 12.2461L12.6465 12.2471C12.3496 12.5746 12.0281 12.8226 11.6621 12.9961L11.502 13.0654C11.09 13.2323 10.6426 13.3222 10.1719 13.3223C9.58439 13.3223 8.97206 13.199 8.34375 12.9639L8.07422 12.8564C7.45851 12.5953 6.83931 12.2493 6.23242 11.835L5.97266 11.6533C5.28414 11.1525 4.62479 10.5875 4.00684 9.97656L4.00586 9.97559C3.38769 9.35274 2.82782 8.69488 2.33203 8.01953L2.33105 8.01855C1.8919 7.40689 1.52787 6.79806 1.25098 6.19629L1.1377 5.93848C0.831833 5.21626 0.677734 4.50823 0.677734 3.83887C0.677781 3.37534 0.760685 2.9346 0.921875 2.52344V2.52246L1.01465 2.56055L0.922852 2.52246C1.0965 2.09226 1.35956 1.70389 1.72363 1.36426C2.18541 0.915809 2.71935 0.677768 3.29395 0.677734ZM3.29395 1.74512C3.00772 1.74515 2.73553 1.86912 2.46484 2.13379L2.46387 2.13477C2.21175 2.37529 2.02969 2.63564 1.91992 2.91504V2.91602C1.80343 3.20393 1.74711 3.5092 1.74707 3.83887C1.74707 4.36154 1.87121 4.93355 2.12207 5.52539L2.22363 5.75293C2.47167 6.28798 2.79861 6.84009 3.20117 7.39258L3.55859 7.86328C3.92727 8.33011 4.32976 8.78518 4.76172 9.2207L5.20215 9.63965C5.65042 10.0507 6.12083 10.4357 6.60059 10.7852L6.83398 10.9512C7.30226 11.2746 7.77773 11.5483 8.25098 11.7646L8.48828 11.8682L8.85156 12.0088C9.68872 12.301 10.4561 12.3363 11.0957 12.0703L11.3008 11.9717C11.4999 11.8615 11.6832 11.7143 11.8545 11.5225L11.8555 11.5215L11.9443 11.417C12.0293 11.3093 12.1009 11.1929 12.1631 11.0605V11.0596L12.2051 10.9609C12.2406 10.8607 12.2578 10.7584 12.2578 10.6572C12.2578 10.5788 12.2427 10.5004 12.2021 10.4092L12.2012 10.4053C12.1977 10.3967 12.1707 10.3426 12.0752 10.2773L12.0732 10.2764L10.1484 8.91016V8.90918C10.0385 8.83245 9.94119 8.77923 9.85156 8.74219L9.76074 8.71387C9.73479 8.70791 9.71248 8.70557 9.69238 8.70605C9.65515 8.70702 9.61631 8.71808 9.56445 8.75098L9.55566 8.75684L9.55469 8.75586C9.45301 8.80666 9.35811 8.88527 9.24512 8.99805H9.24414L8.80371 9.43262H8.80273C8.54672 9.6815 8.15796 9.7392 7.8584 9.62891L7.85156 9.62598L7.69531 9.55664L7.68848 9.55371C7.44245 9.42192 7.15813 9.22015 6.84766 8.95703V8.95605C6.56083 8.71642 6.26865 8.44283 5.89746 8.07812L5.89648 8.07715C5.60473 7.78011 5.3246 7.47109 5.02832 7.13477L5.02734 7.13379C4.75288 6.81319 4.55042 6.53535 4.42383 6.30078L4.41992 6.29297L4.34473 6.11914L4.3418 6.1123L4.33984 6.10547C4.30382 5.97359 4.29006 5.88894 4.29004 5.7959C4.29004 5.56234 4.37465 5.35129 4.53809 5.1875L4.97363 4.73633L4.97461 4.73535L5.11914 4.5752C5.16013 4.52409 5.19332 4.47547 5.21973 4.43066L5.2207 4.42969L5.25977 4.34668C5.26707 4.32313 5.27049 4.303 5.27051 4.28516C5.27051 4.25784 5.25803 4.20246 5.23145 4.13867L5.22949 4.13281C5.21465 4.09088 5.19294 4.04801 5.16504 4.00098L5.0625 3.84473L3.7168 1.94629V1.94727C3.66906 1.88056 3.61395 1.83379 3.54395 1.80078L3.41895 1.75977C3.37723 1.75048 3.33528 1.74512 3.29395 1.74512Z" fill="#222222" stroke="#222222" stroke-width="0.2"/>
</svg>
