<svg width="16" height="16" viewBox="0 0 16 16" fill="none" xmlns="http://www.w3.org/2000/svg">
<path d="M2.62004 11.0861C2.49337 11.0861 2.3667 11.0394 2.2667 10.9394C2.07337 10.7461 2.07337 10.4261 2.2667 10.2328L10.2334 2.26609C10.4267 2.07276 10.7467 2.07276 10.94 2.26609C11.1334 2.45943 11.1334 2.77943 10.94 2.97276L2.97337 10.9461C2.88004 11.0394 2.7467 11.0861 2.62004 11.0861Z" fill="#292D32"/>
<path d="M7.39995 12.687C7.27328 12.687 7.14661 12.6403 7.04661 12.5403C6.85328 12.347 6.85328 12.027 7.04661 11.8337L7.84661 11.0337C8.03995 10.8403 8.35995 10.8403 8.55328 11.0337C8.74661 11.227 8.74661 11.547 8.55328 11.7403L7.75328 12.5403C7.65995 12.6337 7.53328 12.687 7.39995 12.687Z" fill="#292D32"/>
<path d="M9.19328 10.8924C9.06661 10.8924 8.93995 10.8458 8.83995 10.7458C8.64661 10.5524 8.64661 10.2324 8.83995 10.0391L10.4333 8.44578C10.6266 8.25245 10.9466 8.25245 11.1399 8.44578C11.3333 8.63911 11.3333 8.95911 11.1399 9.15245L9.54661 10.7458C9.45328 10.8391 9.31995 10.8924 9.19328 10.8924Z" fill="#292D32"/>
<path d="M7.40002 15.166C6.74669 15.166 6.09336 14.766 5.30002 13.9726L2.02669 10.6993C0.433357 9.10596 0.440024 8.07929 2.04669 6.47263L6.47336 2.04596C8.08002 0.439292 9.10669 0.432625 10.7 2.02596L13.9734 5.29929C15.5667 6.89263 15.56 7.91929 13.9534 9.52596L9.52669 13.9526C8.72002 14.7593 8.06002 15.166 7.40002 15.166ZM8.60002 1.83263C8.25336 1.83263 7.81336 2.11929 7.18002 2.75263L2.75336 7.17929C2.12002 7.81263 1.83336 8.25263 1.83336 8.59263C1.83336 8.93929 2.10002 9.35929 2.73336 9.99263L6.00669 13.266C6.64002 13.8993 7.05336 14.166 7.40002 14.166C7.40002 14.166 7.40002 14.166 7.40669 14.166C7.75336 14.166 8.18669 13.8793 8.82002 13.246L13.2467 8.81929C13.88 8.18596 14.1667 7.74596 14.1667 7.40596C14.1667 7.05929 13.9 6.63929 13.2667 6.00596L9.99336 2.73263C9.36669 2.09929 8.94669 1.83263 8.60002 1.83263Z" fill="#292D32"/>
<path d="M14.6667 15.166H1.33337C1.06004 15.166 0.833374 14.9393 0.833374 14.666C0.833374 14.3927 1.06004 14.166 1.33337 14.166H14.6667C14.94 14.166 15.1667 14.3927 15.1667 14.666C15.1667 14.9393 14.94 15.166 14.6667 15.166Z" fill="#292D32"/>
</svg>
