<svg width="16" height="16" viewBox="0 0 16 16" fill="none" xmlns="http://www.w3.org/2000/svg">
<path d="M6.33325 0.740234C8.50866 0.740234 10.4989 1.93227 11.4036 3.78906H11.4026C11.7492 4.47584 11.9329 5.22447 11.9329 6.00684C11.9327 8.82489 9.56916 11.1269 6.62231 11.2637L5.80981 12.2441L5.80884 12.2451C5.56399 12.526 5.21008 12.6933 4.84009 12.6934C4.77947 12.6934 4.71947 12.6852 4.66724 12.6787H4.66626C4.23244 12.6207 3.86379 12.3458 3.68286 11.9551L3.68188 11.9541L2.85181 10.1299C1.50814 9.12551 0.733746 7.6311 0.733643 6.00684C0.733643 3.09918 3.25064 0.740234 6.33325 0.740234ZM6.33325 1.93359C3.90103 1.93359 1.93286 3.76239 1.93286 6C1.93291 7.19859 2.49162 8.31422 3.47485 9.09375L3.67798 9.24512L3.67896 9.24609L3.7395 9.29492C3.79771 9.34794 3.8475 9.41233 3.87915 9.48828H3.87817L4.77075 11.4521L4.79614 11.4805C4.80562 11.4858 4.8137 11.4863 4.81372 11.4863H4.82349L4.83325 11.4883C4.83409 11.4884 4.83606 11.4884 4.83911 11.4883C4.84352 11.4881 4.84915 11.4879 4.85474 11.4863C4.86487 11.4835 4.87384 11.4773 4.88208 11.4688L5.86938 10.2822C5.98198 10.1458 6.15065 10.0664 6.33325 10.0664C8.76541 10.0664 10.7335 8.23753 10.7336 6C10.7336 5.40918 10.5966 4.8445 10.3303 4.31836V4.31641C9.62851 2.86742 8.05846 1.93359 6.33325 1.93359Z" fill="white" stroke="white" stroke-width="0.2"/>
<path d="M10.4534 3.62061C10.5992 3.48239 10.8068 3.42759 11.0012 3.46924H11.0022L11.2356 3.52783C13.6186 4.1771 15.2667 6.21883 15.2668 8.57959C15.2668 10.2044 14.4911 11.6992 13.1467 12.7036L12.3176 14.5278V14.5288C12.1304 14.932 11.7615 15.207 11.3196 15.2583L11.3206 15.2593C11.2658 15.2671 11.2053 15.2661 11.1604 15.2661C10.7832 15.2661 10.4355 15.0991 10.1907 14.811H10.1897L9.37622 13.8354C7.85553 13.7606 6.41856 13.1001 5.43481 12.02L5.24243 11.7964C5.05799 11.5715 5.06627 11.2506 5.25024 11.0347L5.86938 10.2896L5.96411 10.1978C6.06747 10.1179 6.19638 10.0737 6.33325 10.0737C8.76547 10.0737 10.7336 8.24396 10.7336 6.00635C10.7336 5.48934 10.6286 4.99257 10.4241 4.52393L10.3303 4.32471C10.2265 4.11704 10.2508 3.86898 10.3948 3.68506L10.4534 3.62061ZM11.842 5.0376C11.9059 5.35187 11.9397 5.67104 11.9397 5.99951C11.9397 8.8183 9.57501 11.1214 6.6272 11.2573L6.51001 11.3931C7.3204 12.1804 8.46414 12.64 9.66626 12.6401C9.79932 12.6401 9.92669 12.6853 10.0315 12.7642L10.1282 12.854L10.1301 12.856L11.1165 14.0425L11.1194 14.0454L11.1467 14.0659C11.1547 14.0685 11.163 14.0691 11.1702 14.0679L11.178 14.0669H11.1868C11.1825 14.0669 11.1831 14.0672 11.1877 14.0659C11.1916 14.0648 11.1966 14.0623 11.2024 14.0591C11.2133 14.053 11.2257 14.0426 11.2356 14.0239L12.1292 12.0581L12.1301 12.0552L12.1672 11.9888C12.2075 11.9241 12.2602 11.8628 12.3293 11.8179L12.5315 11.6665C13.5147 10.8869 14.0735 9.77133 14.0735 8.57275C14.0733 7.08251 13.1985 5.75009 11.842 5.0376Z" fill="white" stroke="white" stroke-width="0.2"/>
<path d="M8.00008 6.5H4.66675C4.39341 6.5 4.16675 6.27333 4.16675 6C4.16675 5.72667 4.39341 5.5 4.66675 5.5H8.00008C8.27341 5.5 8.50008 5.72667 8.50008 6C8.50008 6.27333 8.27341 6.5 8.00008 6.5Z" fill="white"/>
</svg>
