<svg width="16" height="16" viewBox="0 0 16 16" fill="none" xmlns="http://www.w3.org/2000/svg">
<path d="M10.0002 0.733887C11.8214 0.733933 13.1446 1.12254 14.011 1.98877C14.8774 2.85516 15.2668 4.17901 15.2668 6.00049V10.0005C15.2668 11.8218 14.8773 13.1449 14.011 14.0112C13.1446 14.8776 11.8216 15.267 10.0002 15.2671H6.00024C4.17876 15.2671 2.85492 14.8776 1.98853 14.0112C1.1223 13.1449 0.733689 11.8217 0.733643 10.0005V6.00049C0.733643 4.17901 1.12213 2.85516 1.98853 1.98877C2.85492 1.12238 4.17876 0.733887 6.00024 0.733887H10.0002ZM6.00024 1.93311C4.47063 1.93311 3.46363 2.20702 2.83521 2.83545C2.20678 3.46387 1.93286 4.47088 1.93286 6.00049V10.0005C1.9329 11.5299 2.20682 12.5371 2.83521 13.1655C3.46365 13.7937 4.4709 14.0669 6.00024 14.0669H10.0002C11.5297 14.0669 12.5369 13.7939 13.1653 13.1655C13.7937 12.5371 14.0666 11.5299 14.0667 10.0005V6.00049C14.0667 4.47114 13.7935 3.4639 13.1653 2.83545C12.5369 2.20707 11.5297 1.93314 10.0002 1.93311H6.00024Z" fill="white" stroke="white" stroke-width="0.2"/>
<path d="M6.45947 5.14258C7.01465 4.87893 7.70012 4.95328 8.36377 5.33984L10.0767 6.32617L10.3267 6.48828C10.8767 6.88527 11.1997 7.42319 11.1997 8C11.1997 8.5768 10.8767 9.11475 10.3267 9.51172L10.0767 9.67285L8.36377 10.6602L8.36279 10.6592C7.9638 10.8929 7.55384 11.0137 7.17334 11.0137C6.95105 11.0137 6.73949 10.9735 6.54248 10.8936L6.3501 10.7998C5.77692 10.4702 5.46045 9.80378 5.46045 8.98633V7.01367C5.46045 6.20313 5.77686 5.52994 6.3501 5.2002L6.45947 5.14258ZM7.18018 6.18652C7.08487 6.18652 7.01225 6.20439 6.96045 6.2373L6.95752 6.23926C6.79068 6.33849 6.6665 6.6053 6.6665 7.01367V8.98633C6.6665 9.34532 6.75746 9.59246 6.89502 9.71484L6.95654 9.75977L6.95752 9.76074L7.0249 9.79102C7.19495 9.84793 7.45563 9.80303 7.77002 9.62012L9.48389 8.63281C9.84162 8.42446 10.0063 8.19087 10.0063 8C10.0063 7.80841 9.84016 7.568 9.48389 7.36719V7.36621L7.77002 6.37988C7.53974 6.24555 7.33691 6.18655 7.18018 6.18652Z" fill="white" stroke="white" stroke-width="0.2"/>
</svg>
