<svg width="16" height="16" viewBox="0 0 16 16" fill="none" xmlns="http://www.w3.org/2000/svg">
<path d="M11.3335 2.06689C12.8068 2.06691 13.8021 2.2885 14.4233 2.90967C15.0445 3.53087 15.2671 4.52625 15.2671 5.99951V9.99951C15.2671 11.4728 15.0444 12.4681 14.4233 13.0894C13.8021 13.7106 12.8068 13.9331 11.3335 13.9331H4.6665C3.24621 13.9331 2.27265 13.7222 1.64893 13.1538C1.02316 12.5833 0.773247 11.6754 0.739746 10.3491V10.3462L0.750488 10.23C0.771115 10.114 0.823315 10.0019 0.909668 9.91553L0.999512 9.84131C1.0964 9.77451 1.21331 9.73291 1.34033 9.73291C2.29114 9.73272 3.06689 8.95131 3.06689 7.99951C3.06672 7.04786 2.29103 6.26631 1.34033 6.26611C1.21952 6.26611 1.10335 6.2305 1.00342 6.1626L0.909668 6.0835C0.789536 5.96336 0.731679 5.80929 0.739746 5.64795C0.773507 4.3231 1.02356 3.4163 1.64893 2.84619C2.27265 2.27768 3.24608 2.06691 4.6665 2.06689H11.3335ZM4.6665 3.26611C4.13858 3.26612 3.71201 3.28948 3.3667 3.34814C3.02145 3.40682 2.76341 3.50063 2.56885 3.63916C2.19883 3.90271 2.02829 4.34982 1.96631 5.13525C3.28162 5.43087 4.26694 6.60145 4.26709 7.99951C4.26709 9.39759 3.28155 10.567 1.96631 10.8628C2.02818 11.6527 2.19858 12.1009 2.56885 12.3638C2.76332 12.5018 3.02159 12.5947 3.3667 12.6528C3.71202 12.711 4.13862 12.7329 4.6665 12.7329H11.3335C11.9283 12.7329 12.3952 12.7049 12.7622 12.6274C13.1278 12.5503 13.387 12.4257 13.5737 12.2388C13.7605 12.0517 13.8847 11.7918 13.9614 11.4263C14.0384 11.0595 14.0669 10.5928 14.0669 9.99951V5.99951C14.0669 5.40643 14.0384 4.94042 13.9614 4.57373C13.8847 4.20807 13.7605 3.94838 13.5737 3.76123C13.387 3.57424 13.128 3.44976 12.7622 3.37256C12.3952 3.29509 11.9283 3.26612 11.3335 3.26611H4.6665Z" fill="white" stroke="white" stroke-width="0.2"/>
<path d="M6 2.06689C6.32856 2.06689 6.59961 2.33794 6.59961 2.6665V4.99951C6.59961 5.32807 6.32856 5.6001 6 5.6001C5.67144 5.6001 5.40039 5.32807 5.40039 4.99951V2.6665C5.40039 2.33794 5.67144 2.06689 6 2.06689Z" fill="white" stroke="white" stroke-width="0.2"/>
<path d="M6 10.4004C6.32856 10.4004 6.59961 10.6714 6.59961 11V13.333C6.59961 13.6616 6.32856 13.9336 6 13.9336C5.67144 13.9336 5.40039 13.6616 5.40039 13.333V11C5.40039 10.6714 5.67144 10.4004 6 10.4004Z" fill="white" stroke="white" stroke-width="0.2"/>
<path d="M8.69343 10.4336C8.53343 10.4336 8.37343 10.3802 8.2401 10.2869C8.0001 10.1136 7.8801 9.82023 7.93343 9.52689L8.07343 8.73356L7.49343 8.16689C7.2801 7.96023 7.20676 7.65356 7.29343 7.37356C7.38676 7.09356 7.62676 6.88689 7.9201 6.84689L8.7201 6.72689L9.0801 6.00023C9.21343 5.73356 9.4801 5.56689 9.77343 5.56689C10.0734 5.56689 10.3401 5.73356 10.4668 6.00023L10.8268 6.72689L11.6268 6.84689C11.9201 6.88689 12.1601 7.09356 12.2534 7.37356C12.3468 7.65356 12.2668 7.96023 12.0534 8.16689L11.4734 8.73356L11.6134 9.52689C11.6668 9.82023 11.5468 10.1136 11.3068 10.2869C11.0668 10.4602 10.7534 10.4802 10.4934 10.3469L9.7801 9.97356L9.0601 10.3469C8.94676 10.4069 8.8201 10.4336 8.69343 10.4336ZM8.51343 7.76689L8.85343 8.10023C9.0401 8.28023 9.1201 8.53356 9.0801 8.78689L9.0001 9.25356L9.4201 9.03356C9.64676 8.91356 9.91343 8.91356 10.1401 9.03356L10.5601 9.25356L10.4801 8.78689C10.4401 8.52689 10.5201 8.27356 10.7068 8.10023L11.0468 7.76689L10.5801 7.70023C10.3268 7.66023 10.1068 7.50023 9.99343 7.27356L9.78676 6.84689L9.5801 7.27356C9.46676 7.50023 9.24676 7.66023 8.99343 7.70023L8.51343 7.76689Z" fill="white"/>
</svg>
