<svg width="16" height="16" viewBox="0 0 16 16" fill="none" xmlns="http://www.w3.org/2000/svg">
<path d="M7.99976 0.733887C10.1682 0.733887 11.9332 2.49809 11.9333 4.6665C11.9333 6.83507 10.1683 8.6001 7.99976 8.6001C5.83134 8.59992 4.06714 6.83496 4.06714 4.6665C4.06732 2.4982 5.83145 0.734063 7.99976 0.733887ZM7.99976 1.93311C6.49524 1.93328 5.26653 3.16199 5.26636 4.6665C5.26636 6.17117 6.49513 7.39973 7.99976 7.3999C9.50453 7.3999 10.7332 6.17128 10.7332 4.6665C10.733 3.16188 9.50442 1.93311 7.99976 1.93311Z" fill="white" stroke="white" stroke-width="0.2"/>
<path d="M8 9.40039C11.4703 9.40039 14.3271 11.7485 14.3271 14.667C14.327 14.9954 14.055 15.2666 13.7266 15.2666C13.3982 15.2665 13.1271 14.9953 13.127 14.667C13.127 12.4422 10.8472 10.5996 8 10.5996C5.15287 10.5997 2.87305 12.4423 2.87305 14.667C2.87287 14.9954 2.60189 15.2666 2.27344 15.2666C1.94498 15.2666 1.67401 14.9954 1.67383 14.667C1.67383 11.7485 4.52973 9.40044 8 9.40039Z" fill="white" stroke="white" stroke-width="0.2"/>
</svg>
