<svg width="16" height="16" viewBox="0 0 16 16" fill="none" xmlns="http://www.w3.org/2000/svg">
<path d="M12.6667 5.8335C11.2867 5.8335 10.1667 4.7135 10.1667 3.3335C10.1667 1.9535 11.2867 0.833496 12.6667 0.833496C14.0467 0.833496 15.1667 1.9535 15.1667 3.3335C15.1667 4.7135 14.0467 5.8335 12.6667 5.8335ZM12.6667 1.8335C11.8401 1.8335 11.1667 2.50683 11.1667 3.3335C11.1667 4.16016 11.8401 4.8335 12.6667 4.8335C13.4934 4.8335 14.1667 4.16016 14.1667 3.3335C14.1667 2.50683 13.4934 1.8335 12.6667 1.8335Z" fill="white"/>
<path d="M8.00008 9.1665H4.66675C4.39341 9.1665 4.16675 8.93984 4.16675 8.6665C4.16675 8.39317 4.39341 8.1665 4.66675 8.1665H8.00008C8.27341 8.1665 8.50008 8.39317 8.50008 8.6665C8.50008 8.93984 8.27341 9.1665 8.00008 9.1665Z" fill="white"/>
<path d="M10.6667 11.8335H4.66675C4.39341 11.8335 4.16675 11.6068 4.16675 11.3335C4.16675 11.0602 4.39341 10.8335 4.66675 10.8335H10.6667C10.9401 10.8335 11.1667 11.0602 11.1667 11.3335C11.1667 11.6068 10.9401 11.8335 10.6667 11.8335Z" fill="white"/>
<path d="M9.33325 0.733887C9.66181 0.733887 9.93286 1.00493 9.93286 1.3335C9.93286 1.66206 9.66181 1.93311 9.33325 1.93311H6.00024C4.47063 1.93311 3.46363 2.20702 2.83521 2.83545C2.20678 3.46387 1.93286 4.47088 1.93286 6.00049V10.0005C1.9329 11.5299 2.20682 12.5371 2.83521 13.1655C3.46365 13.7937 4.4709 14.0669 6.00024 14.0669H10.0002C11.5297 14.0669 12.5369 13.7939 13.1653 13.1655C13.7937 12.5371 14.0666 11.5299 14.0667 10.0005V6.6665C14.0668 6.3382 14.338 6.06707 14.6663 6.06689C14.9947 6.06689 15.2667 6.33809 15.2668 6.6665V10.0005C15.2668 11.8218 14.8773 13.1449 14.011 14.0112C13.1446 14.8776 11.8216 15.267 10.0002 15.2671H6.00024C4.17876 15.2671 2.85492 14.8776 1.98853 14.0112C1.1223 13.1449 0.733689 11.8217 0.733643 10.0005V6.00049C0.733643 4.17901 1.12213 2.85516 1.98853 1.98877C2.85492 1.12238 4.17876 0.733887 6.00024 0.733887H9.33325Z" fill="white" stroke="white" stroke-width="0.2"/>
</svg>
