<svg width="16" height="16" viewBox="0 0 16 16" fill="none" xmlns="http://www.w3.org/2000/svg">
<path d="M12 0.740234C13.4345 0.740234 14.5996 1.89772 14.5996 3.32031V10.5928C14.5996 12.0154 13.4345 13.1729 12 13.1729H11.4932C11.1264 13.1729 10.7645 13.3228 10.5029 13.5781L9.36328 14.7031L9.36426 14.7041C8.99127 15.0771 8.49188 15.2666 8 15.2666C7.50812 15.2666 7.00873 15.0771 6.63574 14.7041V14.7031L5.49609 13.5771C5.23563 13.3167 4.87467 13.1729 4.50684 13.1729H4C2.56547 13.1729 1.40039 12.0154 1.40039 10.5928V3.32031C1.40039 1.89772 2.56547 0.740234 4 0.740234H12ZM4 1.93359C3.22739 1.93359 2.59961 2.55653 2.59961 3.31348V10.5869C2.59983 11.35 3.22723 11.9668 4 11.9668H4.50684C5.19338 11.9668 5.85866 12.2435 6.34375 12.7217L7.4834 13.8486L7.59863 13.9404C7.88427 14.1257 8.27152 14.0953 8.52344 13.8486L9.66309 12.7217L9.85352 12.5518C10.3152 12.1785 10.8994 11.9668 11.5 11.9668H12C12.7725 11.9668 13.4002 11.3437 13.4004 10.5869V3.31348C13.4004 2.55016 12.7729 1.93359 12 1.93359H4Z" fill="white" stroke="white" stroke-width="0.2"/>
<path d="M7.99988 7.16671C6.86654 7.16671 5.94653 6.2467 5.94653 5.11336C5.94653 3.98003 6.86654 3.06006 7.99988 3.06006C9.13321 3.06006 10.0532 3.98003 10.0532 5.11336C10.0532 6.2467 9.13321 7.16671 7.99988 7.16671ZM7.99988 4.06006C7.41988 4.06006 6.94653 4.53336 6.94653 5.11336C6.94653 5.69336 7.41988 6.16671 7.99988 6.16671C8.57988 6.16671 9.05322 5.69336 9.05322 5.11336C9.05322 4.53336 8.57988 4.06006 7.99988 4.06006Z" fill="white"/>
<path d="M10.6666 10.9399C10.3933 10.9399 10.1666 10.7132 10.1666 10.4399C10.1666 9.5199 9.19325 8.7666 7.99992 8.7666C6.80659 8.7666 5.83325 9.5199 5.83325 10.4399C5.83325 10.7132 5.60659 10.9399 5.33325 10.9399C5.05992 10.9399 4.83325 10.7132 4.83325 10.4399C4.83325 8.96657 6.25325 7.7666 7.99992 7.7666C9.74659 7.7666 11.1666 8.96657 11.1666 10.4399C11.1666 10.7132 10.9399 10.9399 10.6666 10.9399Z" fill="white"/>
</svg>
