<svg width="16" height="16" viewBox="0 0 16 16" fill="none" xmlns="http://www.w3.org/2000/svg">
<path d="M14.6663 14.1167C14.9672 14.1167 15.217 14.3656 15.217 14.6665C15.217 14.9675 14.9672 15.2163 14.6663 15.2163H1.33325C1.0323 15.2163 0.783447 14.9675 0.783447 14.6665C0.783447 14.3656 1.0323 14.1167 1.33325 14.1167H14.6663Z" fill="white" stroke="white" stroke-width="0.1"/>
<path d="M6.97266 1.44141C7.59429 1.03733 8.39984 1.03751 9.02637 1.44141L9.15723 1.53418L13.8242 5.16113L13.9854 5.30371C14.3403 5.65607 14.5497 6.14305 14.5498 6.64648V14.7168H13.4502V6.65332C13.4501 6.41578 13.3373 6.18387 13.1494 6.0332L8.48242 2.40625C8.2008 2.18738 7.80547 2.18572 7.5166 2.40527L7.51758 2.40625L2.85059 6.04004C2.66323 6.18372 2.54985 6.41535 2.5498 6.65332L2.5166 14.667V14.7168H1.41699V14.667L1.4502 6.64648L1.46289 6.43066C1.52032 5.93221 1.7744 5.47854 2.17578 5.16699L6.84277 1.53418L6.97266 1.44141Z" fill="white" stroke="white" stroke-width="0.1"/>
<path d="M8.66626 10.7837C9.52054 10.7837 10.217 11.4792 10.217 12.3335V14.6665C10.217 14.9675 9.96721 15.2173 9.66626 15.2173H6.33325C6.0323 15.2173 5.78345 14.9675 5.78345 14.6665V12.3335C5.78345 11.4792 6.47897 10.7837 7.33325 10.7837H8.66626ZM7.33325 11.8833C7.08753 11.8833 6.88306 12.0878 6.88306 12.3335V14.1167H9.11646V12.3335C9.11645 12.0878 8.91198 11.8833 8.66626 11.8833H7.33325Z" fill="white" stroke="white" stroke-width="0.1"/>
<path d="M6.33325 6.28369C7.00087 6.28369 7.55005 6.83287 7.55005 7.50049V8.50049C7.54987 9.16796 7.00076 9.71729 6.33325 9.71729H5.00024C4.33274 9.71729 3.78363 9.16796 3.78345 8.50049V7.50049C3.78345 6.83287 4.33263 6.28369 5.00024 6.28369H6.33325ZM5.00024 7.3833C4.93453 7.3833 4.88306 7.43477 4.88306 7.50049V8.50049C4.88322 8.56605 4.93463 8.6167 5.00024 8.6167H6.33325C6.39886 8.6167 6.44929 8.56605 6.44946 8.50049V7.50049C6.44946 7.43477 6.39897 7.3833 6.33325 7.3833H5.00024Z" fill="white" stroke="white" stroke-width="0.1"/>
<path d="M11 6.28369C11.6676 6.28369 12.2168 6.83287 12.2168 7.50049V8.50049C12.2166 9.16796 11.6675 9.71729 11 9.71729H9.66699C8.99949 9.71729 8.45037 9.16796 8.4502 8.50049V7.50049C8.4502 6.83287 8.99938 6.28369 9.66699 6.28369H11ZM9.66699 7.3833C9.60127 7.3833 9.5498 7.43477 9.5498 7.50049V8.50049C9.54997 8.56605 9.60138 8.6167 9.66699 8.6167H11C11.0656 8.6167 11.116 8.56605 11.1162 8.50049V7.50049C11.1162 7.43477 11.0657 7.3833 11 7.3833H9.66699Z" fill="white" stroke="white" stroke-width="0.1"/>
<path d="M12.6536 2.1167C12.9535 2.11684 13.2033 2.35801 13.2034 2.65967L13.2229 4.65967V4.66064C13.2156 4.96539 12.9766 5.21396 12.6692 5.21533V5.21631H12.6663C12.3664 5.21611 12.1165 4.97495 12.1165 4.67334L12.1038 3.21631H9.71997C9.41902 3.21631 9.17017 2.96745 9.17017 2.6665C9.17017 2.36556 9.41902 2.1167 9.71997 2.1167H12.6536Z" fill="white" stroke="white" stroke-width="0.1"/>
</svg>
