<svg width="16" height="16" viewBox="0 0 16 16" fill="none" xmlns="http://www.w3.org/2000/svg">
<path d="M5.33325 0.733887C5.66181 0.733887 5.93286 1.00493 5.93286 1.3335V3.3335C5.93286 3.66206 5.66181 3.93311 5.33325 3.93311C5.00469 3.93311 4.73364 3.66206 4.73364 3.3335V1.3335C4.73364 1.00493 5.00469 0.733887 5.33325 0.733887Z" fill="white" stroke="white" stroke-width="0.2"/>
<path d="M10.6667 0.733887C10.9953 0.733887 11.2664 1.00493 11.2664 1.3335V3.3335C11.2664 3.66206 10.9953 3.93311 10.6667 3.93311C10.3382 3.93311 10.0671 3.66206 10.0671 3.3335V1.3335C10.0671 1.00493 10.3382 0.733887 10.6667 0.733887Z" fill="white" stroke="white" stroke-width="0.2"/>
<path d="M5.66667 9.66655C5.58 9.66655 5.49333 9.64656 5.41333 9.61322C5.32667 9.57989 5.26 9.53321 5.19333 9.47321C5.07333 9.34654 5 9.17988 5 8.99988C5 8.91322 5.02 8.82655 5.05333 8.74655C5.08667 8.66655 5.13333 8.59322 5.19333 8.52655C5.26 8.46655 5.32667 8.41987 5.41333 8.38654C5.65333 8.28654 5.95333 8.33989 6.14 8.52655C6.26 8.65322 6.33333 8.82655 6.33333 8.99988C6.33333 9.03988 6.32667 9.08656 6.32 9.13322C6.31333 9.17322 6.3 9.21322 6.28 9.25322C6.26667 9.29322 6.24667 9.33321 6.22 9.37321C6.2 9.40655 6.16667 9.43988 6.14 9.47321C6.01333 9.59321 5.84 9.66655 5.66667 9.66655Z" fill="white"/>
<path d="M7.99992 9.66658C7.91325 9.66658 7.82658 9.64659 7.74658 9.61326C7.65992 9.57992 7.59325 9.53324 7.52659 9.47324C7.40659 9.34658 7.33325 9.17992 7.33325 8.99992C7.33325 8.91325 7.35325 8.82658 7.38659 8.74658C7.41992 8.66658 7.46659 8.59325 7.52659 8.52659C7.59325 8.46659 7.65992 8.41991 7.74658 8.38657C7.98658 8.27991 8.28658 8.33992 8.47325 8.52659C8.59325 8.65325 8.66659 8.82658 8.66659 8.99992C8.66659 9.03992 8.65992 9.08659 8.65325 9.13326C8.64659 9.17326 8.63325 9.21325 8.61325 9.25325C8.59992 9.29325 8.57992 9.33325 8.55325 9.37325C8.53325 9.40658 8.49992 9.43991 8.47325 9.47324C8.34658 9.59324 8.17325 9.66658 7.99992 9.66658Z" fill="white"/>
<path d="M10.3334 9.66658C10.2467 9.66658 10.1601 9.64659 10.0801 9.61326C9.99341 9.57992 9.92675 9.53324 9.86008 9.47324C9.83342 9.43991 9.80675 9.40658 9.78008 9.37325C9.75341 9.33325 9.73342 9.29325 9.72008 9.25325C9.70008 9.21325 9.68675 9.17326 9.68008 9.13326C9.67342 9.08659 9.66675 9.03992 9.66675 8.99992C9.66675 8.82658 9.74008 8.65325 9.86008 8.52659C9.92675 8.46659 9.99341 8.41991 10.0801 8.38657C10.3267 8.27991 10.6201 8.33992 10.8067 8.52659C10.9267 8.65325 11.0001 8.82658 11.0001 8.99992C11.0001 9.03992 10.9934 9.08659 10.9867 9.13326C10.9801 9.17326 10.9667 9.21325 10.9467 9.25325C10.9334 9.29325 10.9134 9.33325 10.8867 9.37325C10.8667 9.40658 10.8334 9.43991 10.8067 9.47324C10.6801 9.59324 10.5067 9.66658 10.3334 9.66658Z" fill="white"/>
<path d="M5.66667 11.9998C5.58 11.9998 5.49333 11.9798 5.41333 11.9465C5.33333 11.9131 5.26 11.8665 5.19333 11.8065C5.07333 11.6798 5 11.5065 5 11.3331C5 11.2465 5.02 11.1598 5.05333 11.0798C5.08667 10.9931 5.13333 10.9198 5.19333 10.8598C5.44 10.6131 5.89333 10.6131 6.14 10.8598C6.26 10.9865 6.33333 11.1598 6.33333 11.3331C6.33333 11.5065 6.26 11.6798 6.14 11.8065C6.01333 11.9265 5.84 11.9998 5.66667 11.9998Z" fill="white"/>
<path d="M7.99992 11.9998C7.82659 11.9998 7.65325 11.9265 7.52659 11.8065C7.40659 11.6798 7.33325 11.5065 7.33325 11.3331C7.33325 11.2465 7.35325 11.1598 7.38659 11.0798C7.41992 10.9931 7.46659 10.9198 7.52659 10.8598C7.77325 10.6131 8.22658 10.6131 8.47325 10.8598C8.53325 10.9198 8.57992 10.9931 8.61325 11.0798C8.64658 11.1598 8.66659 11.2465 8.66659 11.3331C8.66659 11.5065 8.59325 11.6798 8.47325 11.8065C8.34658 11.9265 8.17325 11.9998 7.99992 11.9998Z" fill="white"/>
<path d="M10.3334 11.9999C10.1601 11.9999 9.98675 11.9266 9.86008 11.8066C9.80008 11.7466 9.75342 11.6733 9.72008 11.5866C9.68675 11.5066 9.66675 11.4199 9.66675 11.3333C9.66675 11.2466 9.68675 11.1599 9.72008 11.0799C9.75342 10.9933 9.80008 10.9199 9.86008 10.8599C10.0134 10.7066 10.2467 10.6333 10.4601 10.6799C10.5067 10.6866 10.5467 10.6999 10.5867 10.7199C10.6267 10.7333 10.6667 10.7533 10.7067 10.78C10.7401 10.8 10.7734 10.8333 10.8067 10.8599C10.9267 10.9866 11.0001 11.1599 11.0001 11.3333C11.0001 11.5066 10.9267 11.6799 10.8067 11.8066C10.6801 11.9266 10.5067 11.9999 10.3334 11.9999Z" fill="white"/>
<path d="M13.6663 5.46045L13.7864 5.47217C14.0586 5.52848 14.2668 5.77244 14.2668 6.06006C14.2668 6.38862 13.9948 6.65967 13.6663 6.65967H2.33325C2.00469 6.65967 1.73364 6.38862 1.73364 6.06006C1.73364 5.7315 2.00469 5.46045 2.33325 5.46045H13.6663Z" fill="white" stroke="white" stroke-width="0.2"/>
<path d="M10.667 1.73389C11.9025 1.73395 12.8888 2.0895 13.5664 2.76709C14.244 3.44468 14.5995 4.43101 14.5996 5.6665V11.3335C14.5996 12.569 14.244 13.5553 13.5664 14.2329C12.8888 14.9105 11.9025 15.267 10.667 15.2671H5.33301C4.09751 15.267 3.11119 14.9105 2.43359 14.2329C1.75605 13.5553 1.40039 12.569 1.40039 11.3335V5.6665L1.4043 5.43799C1.44588 4.30902 1.79831 3.40237 2.43359 2.76709C3.11119 2.0895 4.09751 1.73395 5.33301 1.73389H10.667ZM5.33301 2.93311C4.39454 2.93316 3.71669 3.16173 3.27246 3.60596C2.82823 4.05018 2.59966 4.72804 2.59961 5.6665V11.3335C2.59961 12.272 2.82829 12.9498 3.27246 13.394C3.71669 13.8383 4.39454 14.0668 5.33301 14.0669H10.667C11.6055 14.0668 12.2833 13.8383 12.7275 13.394C13.1717 12.9498 13.4004 12.272 13.4004 11.3335V5.6665C13.4003 4.72804 13.1718 4.05018 12.7275 3.60596C12.2833 3.16173 11.6055 2.93316 10.667 2.93311H5.33301Z" fill="white" stroke="white" stroke-width="0.2"/>
</svg>
