<svg width="16" height="16" viewBox="0 0 16 16" fill="none" xmlns="http://www.w3.org/2000/svg">
<path d="M7.82715 1.16357C8.73641 0.96202 9.69309 1.11126 10.4766 1.29541L11.5898 1.55615L11.8779 1.62744C13.193 1.97517 14.0881 2.49694 14.6387 3.26514L14.752 3.43311V3.43408L14.8525 3.60889C15.2954 4.4409 15.3687 5.47346 15.0947 6.80615L15.0303 7.09619L14.377 9.88232C14.0879 11.1124 13.6397 12.0323 13.0039 12.644C12.3656 13.258 11.5477 13.5532 10.54 13.5532C10.3642 13.5532 10.1808 13.5463 9.9834 13.5259V13.5249C9.71909 13.5044 9.42915 13.4627 9.12793 13.3999L8.82324 13.3306L7.70312 13.064V13.063C6.15573 12.697 5.10504 12.1002 4.53906 11.187C3.97302 10.2736 3.90694 9.06845 4.26953 7.52393L4.92285 4.72998C5.03365 4.25165 5.16047 3.83919 5.30859 3.479L5.46387 3.13525C6.05074 1.92464 6.9114 1.36669 7.82715 1.16357ZM8.74707 2.26611C8.20459 2.26611 7.7692 2.37841 7.41406 2.604C7.10327 2.80153 6.84664 3.0906 6.63281 3.48193L6.54395 3.65674C6.37454 4.00858 6.22299 4.44829 6.09082 5.00342L5.4375 7.79639C5.14251 9.04938 5.17369 9.92033 5.56445 10.5503C5.95533 11.1804 6.72323 11.5976 7.97656 11.896L9.09668 12.1626L9.35938 12.2202C9.61758 12.2723 9.86266 12.307 10.0889 12.3267H10.0898L10.4131 12.3491C11.1401 12.3734 11.6884 12.2101 12.1143 11.8394C12.6053 11.4119 12.9514 10.694 13.2031 9.61084L13.8564 6.82373L13.9521 6.36279C14.1244 5.40535 14.0699 4.70676 13.7959 4.18311L13.7285 4.06592C13.3973 3.53042 12.7788 3.13299 11.7686 2.84229L11.3105 2.72412L10.1973 2.46436L10.1963 2.46338C9.64864 2.33144 9.1636 2.26615 8.74707 2.26611Z" fill="white" stroke="white" stroke-width="0.2"/>
<path d="M5.88989 2.81543C6.12024 2.76907 6.34486 2.85627 6.48071 3.04004C6.6158 3.2228 6.63919 3.46178 6.54419 3.66797L6.54321 3.6709C6.37421 4.01547 6.2233 4.4544 6.0979 5.00879H6.09692L5.4436 7.80273C5.14864 9.05554 5.18002 9.92669 5.57056 10.5566C5.96139 11.1867 6.72961 11.6039 7.98267 11.9023L9.10278 12.1689H9.10376L9.36548 12.2275C9.6237 12.2796 9.86874 12.3143 10.095 12.334H10.0959L10.1897 12.3496C10.3711 12.3952 10.5193 12.5205 10.5969 12.6904L10.6292 12.7783L10.6301 12.7812L10.6467 12.874C10.6653 13.0598 10.5976 13.2425 10.4631 13.3701L10.3899 13.4287C10.0522 13.659 9.65108 13.8619 9.17407 14.0449L8.67114 14.2217L7.61743 14.5684H7.61646C6.84349 14.8103 6.16612 14.9336 5.55298 14.9336C4.67446 14.9335 3.94806 14.669 3.35278 14.123C2.83428 13.6474 2.42071 12.9624 2.08911 12.0674L1.95142 11.6709L1.0979 9.03711C0.621092 7.55962 0.588904 6.38177 1.0647 5.44922C1.54058 4.51675 2.51189 3.85476 3.98267 3.37793L5.03638 3.03809L5.03735 3.03711L5.50317 2.90137C5.64298 2.86409 5.76969 2.83506 5.88989 2.81445V2.81543ZM4.35767 4.52148C3.17445 4.90263 2.47037 5.36359 2.14575 6.00098C1.82107 6.63853 1.86032 7.48231 2.24146 8.66895L3.09497 11.3018L3.24341 11.7236C3.59818 12.6558 4.0215 13.232 4.57935 13.5176C5.21692 13.8439 6.05929 13.8059 7.24243 13.4248L8.07642 13.1494L7.71021 13.0635C6.16243 12.6975 5.11218 12.0999 4.54614 11.1865C3.98007 10.273 3.91298 9.06807 4.27563 7.52344L4.92896 4.73047C4.96131 4.58264 4.99839 4.43786 5.03735 4.2998L4.35767 4.52148Z" fill="white" stroke="white" stroke-width="0.2"/>
<path d="M11.6599 7.00652C11.6199 7.00652 11.5799 6.99985 11.5332 6.99318L8.29992 6.17318C8.03325 6.10652 7.87325 5.83318 7.93992 5.56652C8.00658 5.29985 8.27992 5.13985 8.54658 5.20652L11.7799 6.02652C12.0466 6.09318 12.2066 6.36652 12.1399 6.63318C12.0866 6.85318 11.8799 7.00652 11.6599 7.00652Z" fill="white"/>
<path d="M9.70667 9.25993C9.66667 9.25993 9.62667 9.25326 9.58 9.2466L7.64 8.75326C7.37334 8.6866 7.21334 8.41326 7.28 8.1466C7.34667 7.87993 7.62 7.71993 7.88667 7.7866L9.82667 8.27993C10.0933 8.3466 10.2533 8.61993 10.1867 8.8866C10.1333 9.11326 9.93334 9.25993 9.70667 9.25993Z" fill="white"/>
</svg>
