<svg width="16" height="16" viewBox="0 0 16 16" fill="none" xmlns="http://www.w3.org/2000/svg">
<path d="M12.0144 0.733887L12.1746 0.73877C12.9209 0.780671 13.6235 1.07276 14.1853 1.57764L14.3035 1.68896L14.3044 1.68994L14.4167 1.80908C14.9636 2.41816 15.2605 3.19424 15.2605 4.00049V5.61279L15.2507 5.86572C15.2034 6.44241 14.982 6.93247 14.6238 7.2915C14.2143 7.70173 13.6331 7.93304 12.947 7.93311H10.6667C10.3382 7.93311 10.0671 7.66206 10.0671 7.3335V2.67334C10.0672 2.15324 10.2713 1.66839 10.6365 1.30322L10.7781 1.17334C11.1227 0.889566 11.5514 0.733922 12.0066 0.733887H12.0144ZM12.0066 1.93311C11.8616 1.93314 11.7197 1.9763 11.5984 2.05713L11.4841 2.15088C11.3427 2.2923 11.2664 2.47356 11.2664 2.67334V6.73389H12.947C13.3145 6.73383 13.5913 6.62773 13.7761 6.44287C13.961 6.25801 14.0671 5.98122 14.0671 5.61377V4.00049C14.0671 3.45461 13.8513 2.93337 13.4636 2.53857L13.3113 2.40283C12.9963 2.148 12.6144 1.98938 12.2136 1.9458L12.0125 1.93311H12.0066Z" fill="white" stroke="white" stroke-width="0.2"/>
<path d="M12.0002 0.733887C12.3287 0.734066 12.5999 1.00504 12.5999 1.3335C12.5999 1.66195 12.3287 1.93293 12.0002 1.93311C11.5956 1.93311 11.267 2.26188 11.2668 2.6665V14.0005C11.2667 14.4245 11.0612 14.8103 10.719 15.0454L10.5647 15.1362C10.1314 15.3529 9.62374 15.31 9.2395 15.02V15.019L8.09985 14.1665L8.0979 14.1646C8.08089 14.1509 8.05572 14.1496 8.0354 14.1587L8.01685 14.1704L6.89771 15.2905L6.89575 15.2915C6.65713 15.5229 6.33938 15.6537 6.00024 15.6538C5.66081 15.6538 5.34114 15.5233 5.10181 15.2769V15.2759L3.99634 14.1646L3.97583 14.1499C3.95382 14.1397 3.92883 14.1432 3.90942 14.1587L3.90649 14.1606L2.76001 15.0142L2.75903 15.0132C2.42373 15.2659 1.99398 15.3374 1.60083 15.2056L1.43481 15.1362C1.00117 14.9193 0.733762 14.4847 0.733643 14.0005V4.00049L0.747314 3.62549C0.811286 2.77374 1.09793 2.08444 1.59106 1.59131C2.15461 1.02776 2.97471 0.733887 4.00024 0.733887H12.0002ZM4.00024 1.93311C3.27377 1.93311 2.76227 2.10175 2.43188 2.43213C2.1015 2.76251 1.93286 3.27402 1.93286 4.00049V14.0005C1.93292 14.0232 1.93971 14.0351 1.94556 14.0425C1.95208 14.0507 1.96133 14.0567 1.9729 14.064C1.98133 14.068 1.99076 14.071 2.00024 14.0708C2.00863 14.0706 2.02111 14.0682 2.03735 14.0552L2.04028 14.0532L3.17993 13.1997L3.26587 13.1411C3.47069 13.0132 3.70503 12.9468 3.9397 12.9468C4.27082 12.9468 4.59719 13.0693 4.84399 13.3228L5.95044 14.436L5.97388 14.4497C5.98398 14.4528 5.9945 14.4536 6.00024 14.4536C6.00602 14.4536 6.01572 14.4528 6.02563 14.4497C6.03538 14.4467 6.04309 14.442 6.04907 14.436L7.16919 13.3159L7.2561 13.2368C7.70547 12.8637 8.358 12.8476 8.82642 13.2065L9.95923 14.0522C9.97807 14.0659 9.9915 14.0681 9.99927 14.0679C10.0086 14.0675 10.0168 14.064 10.0217 14.061L10.0549 14.0347C10.061 14.0273 10.0666 14.0179 10.0667 14.0005V2.6665C10.0667 2.40729 10.1207 2.15828 10.2131 1.93311H4.00024Z" fill="white" stroke="white" stroke-width="0.2"/>
<path d="M8 9.17334H6C5.72667 9.17334 5.5 8.94667 5.5 8.67334C5.5 8.40001 5.72667 8.17334 6 8.17334H8C8.27333 8.17334 8.5 8.40001 8.5 8.67334C8.5 8.94667 8.27333 9.17334 8 9.17334Z" fill="white"/>
<path d="M8 6.50684H6C5.72667 6.50684 5.5 6.28017 5.5 6.00684C5.5 5.7335 5.72667 5.50684 6 5.50684H8C8.27333 5.50684 8.5 5.7335 8.5 6.00684C8.5 6.28017 8.27333 6.50684 8 6.50684Z" fill="white"/>
<path d="M3.98014 6.67318C3.61348 6.67318 3.31348 6.37318 3.31348 6.00651C3.31348 5.63984 3.61348 5.33984 3.98014 5.33984C4.34681 5.33984 4.64681 5.63984 4.64681 6.00651C4.64681 6.37318 4.34681 6.67318 3.98014 6.67318Z" fill="white"/>
<path d="M3.98014 9.34017C3.61348 9.34017 3.31348 9.04017 3.31348 8.6735C3.31348 8.30684 3.61348 8.00684 3.98014 8.00684C4.34681 8.00684 4.64681 8.30684 4.64681 8.6735C4.64681 9.04017 4.34681 9.34017 3.98014 9.34017Z" fill="white"/>
</svg>
