<svg width="16" height="16" viewBox="0 0 16 16" fill="none" xmlns="http://www.w3.org/2000/svg">
<path d="M12.3337 7.83398C12.6622 7.83416 12.9333 8.10514 12.9333 8.43359V10.9004C12.9333 13.3202 10.7095 15.2666 7.99976 15.2666C5.29013 15.2664 3.06722 13.3201 3.06714 10.9004V8.43359C3.06714 8.10503 3.33819 7.83398 3.66675 7.83398C3.99531 7.83398 4.26636 8.10503 4.26636 8.43359C4.26636 10.1053 5.84657 11.4003 7.99976 11.4004C10.1531 11.4004 11.7332 10.1054 11.7332 8.43359C11.7332 8.10503 12.0052 7.83398 12.3337 7.83398ZM4.28687 11.2354C4.48481 12.8123 6.05993 14.0672 7.99976 14.0674C9.93886 14.0674 11.5126 12.8133 11.7117 11.2373C10.8202 12.0842 9.50357 12.6006 7.99976 12.6006C6.49436 12.6005 5.18272 12.0834 4.28687 11.2354Z" fill="white" stroke="white" stroke-width="0.2"/>
<path d="M7.99976 0.733887C9.22077 0.733887 10.3725 1.12136 11.28 1.83154L11.4587 1.97803L11.4597 1.979L11.6326 2.13916C12.4697 2.9547 12.9333 3.99594 12.9333 5.1001C12.9333 5.71144 12.7867 6.30201 12.5115 6.83447L12.3855 7.05811C11.5571 8.42744 9.86703 9.26709 7.99976 9.26709C6.13261 9.26699 4.44339 8.42736 3.61499 7.05811V7.05908C3.25864 6.47658 3.06714 5.79837 3.06714 5.1001C3.06716 3.92216 3.59445 2.81545 4.54077 1.98486L4.71851 1.8374C5.62159 1.1213 6.77904 0.733956 7.99976 0.733887ZM7.99976 1.93311C6.98184 1.93318 6.03255 2.27267 5.32593 2.89502V2.896C4.6391 3.49211 4.26638 4.27839 4.26636 5.1001C4.26636 5.5816 4.39532 6.03039 4.6394 6.43506H4.63843C5.24913 7.43789 6.53197 8.0668 7.99976 8.06689C9.46708 8.06689 10.7501 7.43145 11.3611 6.43506L11.3621 6.43408L11.449 6.28076C11.6396 5.9181 11.7332 5.52222 11.7332 5.1001C11.7331 4.32997 11.4064 3.59042 10.7937 2.99854L10.6677 2.88232C9.96064 2.2727 9.01752 1.93311 7.99976 1.93311Z" fill="white" stroke="white" stroke-width="0.2"/>
<path d="M7.99976 0.733887C9.22077 0.733887 10.3725 1.12136 11.28 1.83154L11.4587 1.97803L11.4597 1.979L11.6326 2.13916C12.4697 2.9547 12.9333 3.99594 12.9333 5.1001V8.43311C12.9333 10.8239 10.7914 12.6001 7.99976 12.6001C5.20829 12.6 3.06714 10.8238 3.06714 8.43311V5.1001C3.06718 2.68032 5.29011 0.734042 7.99976 0.733887ZM7.99976 1.93311C5.92625 1.93326 4.2664 3.36983 4.26636 5.1001V8.43311C4.26636 10.1048 5.84657 11.3998 7.99976 11.3999C10.1531 11.3999 11.7332 10.1049 11.7332 8.43311V5.1001C11.7331 4.32997 11.4064 3.59042 10.7937 2.99854L10.6677 2.88232C9.96064 2.2727 9.01752 1.93311 7.99976 1.93311Z" fill="white" stroke="white" stroke-width="0.2"/>
</svg>
