<svg width="16" height="16" viewBox="0 0 16 16" fill="none" xmlns="http://www.w3.org/2000/svg">
<path d="M10.6667 15.1667H5.33333C1.5 15.1667 1.5 13.1333 1.5 11.3333V10.6667C1.5 9.18 1.5 7.5 4.66667 7.5C5.46 7.5 5.75333 7.69333 6.16667 8C6.18667 8.02 6.21333 8.03333 6.23333 8.06L6.91333 8.78C7.48667 9.38667 8.52667 9.38667 9.1 8.78L9.78 8.06C9.8 8.04 9.82 8.02 9.84667 8C10.26 7.68667 10.5533 7.5 11.3467 7.5C14.5133 7.5 14.5133 9.18 14.5133 10.6667V11.3333C14.5 13.88 13.2133 15.1667 10.6667 15.1667ZM4.66667 8.5C2.5 8.5 2.5 9.18 2.5 10.6667V11.3333C2.5 13.16 2.5 14.1667 5.33333 14.1667H10.6667C12.6533 14.1667 13.5 13.32 13.5 11.3333V10.6667C13.5 9.18 13.5 8.5 11.3333 8.5C10.8533 8.5 10.7533 8.56 10.4667 8.77333L9.82 9.46C9.34 9.96667 8.69333 10.2467 8 10.2467C7.30667 10.2467 6.66 9.96667 6.18 9.46L5.53333 8.77333C5.24667 8.56 5.14667 8.5 4.66667 8.5Z" fill="#222222"/>
<path d="M12.6666 8.50065C12.3933 8.50065 12.1666 8.27398 12.1666 8.00065V4.00065C12.1666 2.51398 12.1666 1.83398 9.99998 1.83398H5.99998C3.83331 1.83398 3.83331 2.51398 3.83331 4.00065V8.00065C3.83331 8.27398 3.60665 8.50065 3.33331 8.50065C3.05998 8.50065 2.83331 8.27398 2.83331 8.00065V4.00065C2.83331 2.51398 2.83331 0.833984 5.99998 0.833984H9.99998C13.1666 0.833984 13.1666 2.51398 13.1666 4.00065V8.00065C13.1666 8.27398 12.94 8.50065 12.6666 8.50065Z" fill="#222222"/>
<path d="M9.25332 6.6543H7.03333C6.75999 6.6543 6.53333 6.42763 6.53333 6.1543C6.53333 5.88096 6.75999 5.6543 7.03333 5.6543H9.25332C9.52666 5.6543 9.75332 5.88096 9.75332 6.1543C9.75332 6.42763 9.53332 6.6543 9.25332 6.6543Z" fill="#222222"/>
<path d="M9.81331 4.6543H6.47998C6.20665 4.6543 5.97998 4.42763 5.97998 4.1543C5.97998 3.88096 6.20665 3.6543 6.47998 3.6543H9.81331C10.0866 3.6543 10.3133 3.88096 10.3133 4.1543C10.3133 4.42763 10.0933 4.6543 9.81331 4.6543Z" fill="#222222"/>
</svg>
