<svg width="16" height="16" viewBox="0 0 16 16" fill="none" xmlns="http://www.w3.org/2000/svg">
<path d="M3.33333 9.83341C2.32 9.83341 1.5 9.01341 1.5 8.00008C1.5 6.98675 2.32 6.16675 3.33333 6.16675C4.34667 6.16675 5.16667 6.98675 5.16667 8.00008C5.16667 9.01341 4.34667 9.83341 3.33333 9.83341ZM3.33333 7.16675C2.87333 7.16675 2.5 7.54008 2.5 8.00008C2.5 8.46008 2.87333 8.83341 3.33333 8.83341C3.79333 8.83341 4.16667 8.46008 4.16667 8.00008C4.16667 7.54008 3.79333 7.16675 3.33333 7.16675Z" fill="#292D32"/>
<path d="M12.6666 9.83341C11.6533 9.83341 10.8333 9.01341 10.8333 8.00008C10.8333 6.98675 11.6533 6.16675 12.6666 6.16675C13.68 6.16675 14.5 6.98675 14.5 8.00008C14.5 9.01341 13.68 9.83341 12.6666 9.83341ZM12.6666 7.16675C12.2066 7.16675 11.8333 7.54008 11.8333 8.00008C11.8333 8.46008 12.2066 8.83341 12.6666 8.83341C13.1266 8.83341 13.5 8.46008 13.5 8.00008C13.5 7.54008 13.1266 7.16675 12.6666 7.16675Z" fill="#292D32"/>
<path d="M8.00002 9.83341C6.98669 9.83341 6.16669 9.01341 6.16669 8.00008C6.16669 6.98675 6.98669 6.16675 8.00002 6.16675C9.01335 6.16675 9.83335 6.98675 9.83335 8.00008C9.83335 9.01341 9.01335 9.83341 8.00002 9.83341ZM8.00002 7.16675C7.54002 7.16675 7.16669 7.54008 7.16669 8.00008C7.16669 8.46008 7.54002 8.83341 8.00002 8.83341C8.46002 8.83341 8.83335 8.46008 8.83335 8.00008C8.83335 7.54008 8.46002 7.16675 8.00002 7.16675Z" fill="#292D32"/>
</svg>
