<svg width="14" height="14" viewBox="0 0 14 14" fill="none" xmlns="http://www.w3.org/2000/svg">
<path d="M1 2.33333H5.66667M5.66667 2.33333C5.66667 3.06971 6.26362 3.66667 7 3.66667C7.73638 3.66667 8.33333 3.06971 8.33333 2.33333M5.66667 2.33333C5.66667 1.59695 6.26362 1 7 1C7.73638 1 8.33333 1.59695 8.33333 2.33333M1 7H7M11.6667 7H13M11.6667 7C11.6667 7.73638 11.0697 8.33333 10.3333 8.33333C9.59695 8.33333 9 7.73638 9 7C9 6.26362 9.59695 5.66667 10.3333 5.66667C11.0697 5.66667 11.6667 6.26362 11.6667 7ZM8.33333 2.33333H13M7 11.6667H13M1 11.6667H2.33333M2.33333 11.6667C2.33333 12.403 2.93029 13 3.66667 13C4.40305 13 5 12.403 5 11.6667C5 10.9303 4.40305 10.3333 3.66667 10.3333C2.93029 10.3333 2.33333 10.9303 2.33333 11.6667Z" stroke="#222222" stroke-width="1.2" stroke-linecap="round"/>
</svg>
