<svg width="17" height="17" viewBox="0 0 17 17" fill="none" xmlns="http://www.w3.org/2000/svg">
<path d="M4.03027 12.2109L4.03027 15.7495C4.03027 15.8876 4.1422 15.9995 4.28027 15.9995L6.81113 15.9995C6.9492 15.9995 7.06113 15.8876 7.06113 15.7495L7.06113 12.2109" stroke="#222222" stroke-width="1.2" stroke-linecap="round"/>
<path d="M4.7876 12.2114L1.16719 12.2114C1.03138 12.2114 0.951777 12.0367 1.02967 11.9096L3.19513 8.37529L1.16719 8.37529C1.03138 8.37529 0.951776 8.20061 1.02967 8.07349L5.40798 0.927512C5.47481 0.81843 5.61621 0.818433 5.68304 0.927519L10.061 8.07349C10.1388 8.20062 10.0592 8.37529 9.92343 8.37529L7.89568 8.37529L10.061 11.9096C10.1388 12.0367 10.0592 12.2114 9.92343 12.2114L6.30302 12.2114" stroke="#222222" stroke-width="1.2" stroke-linecap="round"/>
<path d="M12.9719 11.8311L12.9719 14.9908C12.9719 15.1288 12.86 15.2408 12.7219 15.2408L10.4941 15.2408C10.3561 15.2408 10.2441 15.1288 10.2441 14.9908L10.2441 13.5359" stroke="#222222" stroke-width="1.2" stroke-linecap="round"/>
<path d="M11.607 11.8317L15.5478 11.8317C15.67 11.8317 15.7417 11.6745 15.6716 11.5601L13.7228 8.37917L15.5478 8.37917C15.67 8.37917 15.7417 8.22196 15.6716 8.10755L11.7315 1.67617C11.6713 1.578 11.5441 1.57799 11.4839 1.67617L9.51367 4.89186" stroke="#222222" stroke-width="1.2" stroke-linecap="round"/>
</svg>
