<svg width="16" height="16" viewBox="0 0 16 16" fill="none" xmlns="http://www.w3.org/2000/svg">
<path d="M10.0004 0.733643C11.8216 0.733689 13.1448 1.1223 14.0111 1.98853C14.8775 2.85492 15.267 4.17877 15.267 6.00024V10.0002C15.2669 11.8216 14.8774 13.1446 14.0111 14.011C13.1448 14.8773 11.8217 15.2668 10.0004 15.2668H6.00037C4.17889 15.2668 2.85504 14.8774 1.98865 14.011C1.12242 13.1446 0.733811 11.8214 0.733765 10.0002V6.00024C0.733765 4.17877 1.12225 2.85492 1.98865 1.98853C2.85504 1.12213 4.17889 0.733643 6.00037 0.733643H10.0004ZM6.00037 1.93286C4.47075 1.93286 3.46375 2.20678 2.83533 2.83521C2.2069 3.46363 1.93298 4.47063 1.93298 6.00024V10.0002C1.93302 11.5297 2.20695 12.5369 2.83533 13.1653C3.46377 13.7935 4.47102 14.0667 6.00037 14.0667H10.0004C11.5298 14.0666 12.537 13.7937 13.1654 13.1653C13.7938 12.5369 14.0667 11.5297 14.0668 10.0002V6.00024C14.0668 4.4709 13.7936 3.46365 13.1654 2.83521C12.537 2.20682 11.5298 1.9329 10.0004 1.93286H6.00037Z" fill="black" stroke="white" stroke-width="0.2"/>
<path d="M5.99963 3.40039C7.06809 3.40039 7.93305 4.2646 7.93323 5.33301C7.93323 6.40157 7.0682 7.2666 5.99963 7.2666C4.93122 7.26643 4.06702 6.40146 4.06702 5.33301C4.06719 4.2647 4.93133 3.40057 5.99963 3.40039ZM5.99963 4.59961C5.59512 4.59979 5.26641 4.92849 5.26624 5.33301C5.26624 5.73767 5.59501 6.06623 5.99963 6.06641C6.40441 6.06641 6.73303 5.73778 6.73303 5.33301C6.73286 4.92839 6.4043 4.59961 5.99963 4.59961Z" fill="black" stroke="white" stroke-width="0.2"/>
<path d="M11.4589 7.76489C12.2033 7.24066 13.2747 7.27877 13.9784 7.8772L15.0653 8.81079L15.1483 8.89868C15.3175 9.11851 15.3182 9.434 15.1298 9.65747L15.1288 9.65942C14.9131 9.90681 14.5373 9.93823 14.2821 9.7229H14.2811L13.1952 8.78931C12.9363 8.56666 12.5119 8.53828 12.2118 8.70532L12.0917 8.78931L9.31824 11.1692C8.57392 11.808 7.4056 11.8074 6.65515 11.1692L6.65417 11.1682L6.43542 10.9758L6.32507 10.8997C6.05131 10.7434 5.66844 10.7469 5.4032 10.929L5.40222 10.9299L2.11609 13.136L2.11218 13.1389C2.00963 13.2019 1.89151 13.2336 1.78015 13.2336C1.58814 13.2336 1.39574 13.138 1.28308 12.969V12.968C1.09972 12.6955 1.17235 12.3198 1.45203 12.136L4.73718 9.92993C5.44707 9.45016 6.40803 9.47569 7.09167 9.96021L7.22449 10.0637L7.22644 10.0647L7.44519 10.2571L7.56433 10.3401C7.69181 10.4113 7.84292 10.4485 7.99597 10.4485C8.20015 10.4485 8.39882 10.3827 8.54089 10.2581L8.54187 10.2571L11.3153 7.8772L11.4589 7.76489Z" fill="black" stroke="white" stroke-width="0.2"/>
</svg>
