<svg width="20" height="20" viewBox="0 0 20 20" fill="none" xmlns="http://www.w3.org/2000/svg">
<path d="M9.99999 18.0418C9.74166 18.0418 9.49166 18.0085 9.28332 17.9335C6.09999 16.8418 1.04166 12.9668 1.04166 7.24183C1.04166 4.32516 3.39999 1.9585 6.29999 1.9585C7.70832 1.9585 9.02499 2.5085 9.99999 3.49183C10.975 2.5085 12.2917 1.9585 13.7 1.9585C16.6 1.9585 18.9583 4.3335 18.9583 7.24183C18.9583 12.9752 13.9 16.8418 10.7167 17.9335C10.5083 18.0085 10.2583 18.0418 9.99999 18.0418ZM6.29999 3.2085C4.09166 3.2085 2.29166 5.01683 2.29166 7.24183C2.29166 12.9335 7.76666 16.1002 9.69166 16.7585C9.84166 16.8085 10.1667 16.8085 10.3167 16.7585C12.2333 16.1002 17.7167 12.9418 17.7167 7.24183C17.7167 5.01683 15.9167 3.2085 13.7083 3.2085C12.4417 3.2085 11.2667 3.80016 10.5083 4.82516C10.275 5.14183 9.74166 5.14183 9.50832 4.82516C8.73332 3.79183 7.56666 3.2085 6.29999 3.2085Z" fill="#222222"/>
</svg>
