<svg width="16" height="16" viewBox="0 0 16 16" fill="none" xmlns="http://www.w3.org/2000/svg">
<path d="M14.6667 15.167H1.33337C1.06004 15.167 0.833374 14.9403 0.833374 14.667C0.833374 14.3937 1.06004 14.167 1.33337 14.167H14.6667C14.94 14.167 15.1667 14.3937 15.1667 14.667C15.1667 14.9403 14.94 15.167 14.6667 15.167Z" fill="#222222"/>
<path d="M2.4668 14.6668H1.4668L1.50013 6.6468C1.50013 6.08013 1.76013 5.55348 2.2068 5.20682L6.87346 1.57348C7.53346 1.06014 8.46013 1.06014 9.1268 1.57348L13.7935 5.20014C14.2335 5.54681 14.5001 6.0868 14.5001 6.6468V14.6668H13.5001V6.65347C13.5001 6.40014 13.3801 6.15348 13.1801 5.99348L8.51346 2.36681C8.21346 2.13348 7.79347 2.13348 7.4868 2.36681L2.82013 6.00015C2.62013 6.15349 2.50013 6.40014 2.50013 6.65347L2.4668 14.6668Z" fill="#222222"/>
<path d="M11.3333 15.1663H4.66663C4.39329 15.1663 4.16663 14.9397 4.16663 14.6663V8.33301C4.16663 7.50634 4.83996 6.83301 5.66663 6.83301H10.3333C11.16 6.83301 11.8333 7.50634 11.8333 8.33301V14.6663C11.8333 14.9397 11.6066 15.1663 11.3333 15.1663ZM5.16663 14.1663H10.8333V8.33301C10.8333 8.05967 10.6066 7.83301 10.3333 7.83301H5.66663C5.39329 7.83301 5.16663 8.05967 5.16663 8.33301V14.1663Z" fill="#222222"/>
<path d="M6.66663 12.333C6.39329 12.333 6.16663 12.1063 6.16663 11.833V10.833C6.16663 10.5597 6.39329 10.333 6.66663 10.333C6.93996 10.333 7.16663 10.5597 7.16663 10.833V11.833C7.16663 12.1063 6.93996 12.333 6.66663 12.333Z" fill="#222222"/>
<path d="M9 5.5H7C6.72667 5.5 6.5 5.27333 6.5 5C6.5 4.72667 6.72667 4.5 7 4.5H9C9.27333 4.5 9.5 4.72667 9.5 5C9.5 5.27333 9.27333 5.5 9 5.5Z" fill="#222222"/>
</svg>
