<svg width="20" height="20" viewBox="0 0 20 20" fill="none" xmlns="http://www.w3.org/2000/svg">
<path d="M18.3333 18.9585H1.66666C1.32499 18.9585 1.04166 18.6752 1.04166 18.3335C1.04166 17.9918 1.32499 17.7085 1.66666 17.7085H18.3333C18.675 17.7085 18.9583 17.9918 18.9583 18.3335C18.9583 18.6752 18.675 18.9585 18.3333 18.9585Z" fill="#292D32"/>
<path d="M3.0835 18.3333H1.8335L1.87516 8.30826C1.87516 7.59992 2.20016 6.94161 2.7585 6.50828L8.59183 1.9666C9.41683 1.32493 10.5752 1.32493 11.4085 1.9666L17.2418 6.49994C17.7918 6.93327 18.1252 7.60826 18.1252 8.30826V18.3333H16.8752V8.3166C16.8752 7.99993 16.7252 7.69161 16.4752 7.49161L10.6418 2.95827C10.2668 2.6666 9.74183 2.6666 9.35849 2.95827L3.52516 7.49995C3.27516 7.69161 3.12516 7.99993 3.12516 8.3166L3.0835 18.3333Z" fill="#292D32"/>
<path d="M12.0833 18.9582H7.91666C7.57499 18.9582 7.29166 18.6748 7.29166 18.3332V15.4165C7.29166 14.3832 8.13332 13.5415 9.16666 13.5415H10.8333C11.8667 13.5415 12.7083 14.3832 12.7083 15.4165V18.3332C12.7083 18.6748 12.425 18.9582 12.0833 18.9582ZM8.54166 17.7082H11.4583V15.4165C11.4583 15.0748 11.175 14.7915 10.8333 14.7915H9.16666C8.82499 14.7915 8.54166 15.0748 8.54166 15.4165V17.7082Z" fill="#292D32"/>
<path d="M7.91666 12.0832H6.24999C5.44999 12.0832 4.79166 11.4248 4.79166 10.6248V9.37484C4.79166 8.57484 5.44999 7.9165 6.24999 7.9165H7.91666C8.71666 7.9165 9.37499 8.57484 9.37499 9.37484V10.6248C9.37499 11.4248 8.71666 12.0832 7.91666 12.0832ZM6.24999 9.1665C6.13332 9.1665 6.04166 9.25817 6.04166 9.37484V10.6248C6.04166 10.7415 6.13332 10.8332 6.24999 10.8332H7.91666C8.03332 10.8332 8.12499 10.7415 8.12499 10.6248V9.37484C8.12499 9.25817 8.03332 9.1665 7.91666 9.1665H6.24999Z" fill="#292D32"/>
<path d="M13.75 12.0832H12.0833C11.2833 12.0832 10.625 11.4248 10.625 10.6248V9.37484C10.625 8.57484 11.2833 7.9165 12.0833 7.9165H13.75C14.55 7.9165 15.2083 8.57484 15.2083 9.37484V10.6248C15.2083 11.4248 14.55 12.0832 13.75 12.0832ZM12.0833 9.1665C11.9667 9.1665 11.875 9.25817 11.875 9.37484V10.6248C11.875 10.7415 11.9667 10.8332 12.0833 10.8332H13.75C13.8667 10.8332 13.9583 10.7415 13.9583 10.6248V9.37484C13.9583 9.25817 13.8667 9.1665 13.75 9.1665H12.0833Z" fill="#292D32"/>
<path d="M15.8334 6.4585C15.4917 6.4585 15.2084 6.1835 15.2084 5.84184L15.1917 3.9585H12.1501C11.8084 3.9585 11.5251 3.67516 11.5251 3.3335C11.5251 2.99183 11.8084 2.7085 12.1501 2.7085H15.8167C16.1584 2.7085 16.4417 2.98349 16.4417 3.32515L16.4667 5.82515C16.4584 6.17515 16.1834 6.4585 15.8334 6.4585C15.8417 6.4585 15.8334 6.4585 15.8334 6.4585Z" fill="#292D32"/>
</svg>
