<svg width="13" height="13" viewBox="0 0 13 13" fill="none" xmlns="http://www.w3.org/2000/svg">
<path d="M6.50047 0C4.73516 0 4.51362 0.00771887 3.82028 0.039271C3.12829 0.0709585 2.65595 0.18051 2.24266 0.34125C1.81514 0.507271 1.45249 0.729354 1.0912 1.09078C0.729633 1.45207 0.507547 1.81472 0.340983 2.24209C0.179835 2.65552 0.0701466 3.12799 0.0390004 3.8197C0.0081251 4.51303 0 4.73471 0 6.5C0 8.26529 0.00785437 8.48616 0.0392714 9.17949C0.0710946 9.87147 0.180648 10.3438 0.341254 10.7571C0.507412 11.1846 0.729497 11.5473 1.09093 11.9085C1.45209 12.2701 1.81474 12.4927 2.24198 12.6587C2.65555 12.8195 3.12802 12.929 3.81987 12.9607C4.51321 12.9923 4.73462 13 6.4998 13C8.26524 13 8.48611 12.9923 9.17945 12.9607C9.87144 12.929 10.3443 12.8195 10.7579 12.6587C11.1853 12.4927 11.5474 12.2701 11.9085 11.9085C12.2701 11.5473 12.4922 11.1846 12.6587 10.7572C12.8185 10.3438 12.9282 9.87133 12.9607 9.17962C12.9919 8.48629 13 8.26529 13 6.5C13 4.73471 12.9919 4.51317 12.9607 3.81983C12.9282 3.12785 12.8185 2.65552 12.6587 2.24223C12.4922 1.81472 12.2701 1.45207 11.9085 1.09078C11.547 0.729219 11.1854 0.507135 10.7575 0.34125C10.3431 0.18051 9.87049 0.0709585 9.1785 0.039271C8.48516 0.00771887 8.26443 0 6.49858 0H6.50047ZM5.91736 1.17135C6.09043 1.17108 6.28353 1.17135 6.50047 1.17135C8.23599 1.17135 8.44169 1.17758 9.12704 1.20873C9.7608 1.23771 10.1048 1.3436 10.3339 1.43257C10.6372 1.55039 10.8535 1.69122 11.0809 1.91872C11.3084 2.14622 11.4492 2.36289 11.5673 2.66622C11.6562 2.89507 11.7623 3.23903 11.7911 3.87278C11.8223 4.55799 11.829 4.76382 11.829 6.49851C11.829 8.2332 11.8223 8.43903 11.7911 9.12424C11.7621 9.75799 11.6562 10.1019 11.5673 10.3308C11.4495 10.6341 11.3084 10.8501 11.0809 11.0775C10.8534 11.305 10.6374 11.4458 10.3339 11.5636C10.105 11.653 9.7608 11.7586 9.12704 11.7876C8.44183 11.8188 8.23599 11.8255 6.50047 11.8255C4.76482 11.8255 4.55912 11.8188 3.8739 11.7876C3.24015 11.7584 2.89619 11.6525 2.66692 11.5635C2.36359 11.4457 2.14692 11.3049 1.91942 11.0774C1.69191 10.8499 1.55108 10.6337 1.43299 10.3303C1.34402 10.1014 1.23799 9.75745 1.20915 9.1237C1.178 8.43849 1.17177 8.23266 1.17177 6.49689C1.17177 4.76111 1.178 4.55637 1.20915 3.87116C1.23813 3.23741 1.34402 2.89345 1.43299 2.66432C1.55081 2.36099 1.69191 2.14432 1.91942 1.91682C2.14692 1.68932 2.36359 1.54849 2.66692 1.43041C2.89605 1.34103 3.24015 1.23541 3.8739 1.20629C4.47354 1.17921 4.70591 1.17108 5.91736 1.16973V1.17135Z" fill="#222222"/>
<path d="M9.95618 2.23466C9.8019 2.23466 9.65108 2.28041 9.5228 2.36613C9.39452 2.45185 9.29455 2.57369 9.23552 2.71623C9.17649 2.85877 9.16106 3.01562 9.19118 3.16693C9.2213 3.31824 9.29561 3.45722 9.40472 3.5663C9.51384 3.67537 9.65285 3.74964 9.80417 3.7797C9.95549 3.80977 10.1123 3.79428 10.2549 3.73521C10.3974 3.67613 10.5192 3.57611 10.6049 3.44781C10.6905 3.3195 10.7362 3.16867 10.7362 3.01439C10.7362 2.58376 10.3868 2.23439 9.95618 2.23439V2.23466Z" fill="#222222"/>
<path fill-rule="evenodd" clip-rule="evenodd" d="M6.4865 3.14601C4.64305 3.14601 3.14844 4.64061 3.14844 6.48403C3.14844 8.32746 4.64305 9.82138 6.4865 9.82138C8.32994 9.82138 9.82415 8.32746 9.82415 6.48403C9.82415 4.64061 8.32994 3.14601 6.4865 3.14601ZM6.5 8.63282C7.67792 8.63282 8.63281 7.67793 8.63281 6.50001C8.63281 5.32209 7.67792 4.3672 6.5 4.3672C5.32208 4.3672 4.36719 5.32209 4.36719 6.50001C4.36719 7.67793 5.32208 8.63282 6.5 8.63282Z" fill="#222222"/>
</svg>
