<svg width="14" height="14" viewBox="0 0 14 14" fill="none" xmlns="http://www.w3.org/2000/svg">
<path d="M6.99993 8.26576C5.75743 8.26576 4.74243 7.25659 4.74243 6.00826C4.74243 4.75993 5.75743 3.75659 6.99993 3.75659C8.24243 3.75659 9.25743 4.76576 9.25743 6.01409C9.25743 7.26242 8.24243 8.26576 6.99993 8.26576ZM6.99993 4.63159C6.2416 4.63159 5.61743 5.24993 5.61743 6.01409C5.61743 6.77826 6.23576 7.39659 6.99993 7.39659C7.7641 7.39659 8.38243 6.77826 8.38243 6.01409C8.38243 5.24993 7.75826 4.63159 6.99993 4.63159Z" fill="#4A4A4A"/>
<path d="M6.99998 13.2767C6.13665 13.2767 5.26748 12.9501 4.59081 12.3026C2.86998 10.6459 0.968314 8.00341 1.68581 4.85925C2.33331 2.00675 4.82415 0.729248 6.99998 0.729248C6.99998 0.729248 6.99998 0.729248 7.00581 0.729248C9.18165 0.729248 11.6725 2.00675 12.32 4.86508C13.0316 8.00925 11.13 10.6459 9.40915 12.3026C8.73248 12.9501 7.86331 13.2767 6.99998 13.2767ZM6.99998 1.60425C5.30248 1.60425 3.12081 2.50841 2.54331 5.05175C1.91331 7.79925 3.63998 10.1676 5.20331 11.6667C6.21248 12.6409 7.79331 12.6409 8.80248 11.6667C10.36 10.1676 12.0866 7.79925 11.4683 5.05175C10.885 2.50841 8.69748 1.60425 6.99998 1.60425Z" fill="#4A4A4A"/>
</svg>
