<svg width="20" height="20" viewBox="0 0 20 20" fill="none" xmlns="http://www.w3.org/2000/svg">
<path d="M9.99999 18.9582C9.34999 18.9582 8.71666 18.6248 8.28332 18.0415L7.44166 16.9165C7.26666 16.6832 7.03332 16.5498 6.78332 16.5332C6.53332 16.5248 6.28332 16.6332 6.08332 16.8415L5.60832 16.4165L6.06666 16.8415C4.86666 18.1248 3.94166 18.0248 3.49999 17.8498C3.04999 17.6748 2.29166 17.0998 2.29166 15.2498V5.8665C2.29166 2.1665 3.35832 1.0415 6.84999 1.0415H13.15C16.6417 1.0415 17.7083 2.1665 17.7083 5.8665V15.2498C17.7083 17.0915 16.95 17.6665 16.5 17.8498C16.0583 18.0248 15.1417 18.1248 13.9333 16.8415C13.7333 16.6248 13.4917 16.5082 13.225 16.5332C12.975 16.5498 12.7333 16.6832 12.5583 16.9165L11.7167 18.0415C11.2833 18.6248 10.65 18.9582 9.99999 18.9582ZM6.73332 15.2748C6.76666 15.2748 6.80832 15.2748 6.84166 15.2748C7.45832 15.3082 8.04166 15.6332 8.43332 16.1582L9.27499 17.2832C9.68332 17.8248 10.3083 17.8248 10.7167 17.2832L11.5583 16.1582C11.9583 15.6332 12.5333 15.3082 13.1583 15.2748C13.775 15.2415 14.3917 15.4998 14.8417 15.9832C15.475 16.6582 15.8917 16.7415 16.0333 16.6832C16.2333 16.5998 16.45 16.1165 16.45 15.2498V5.8665C16.45 2.85817 15.925 2.2915 13.1417 2.2915H6.84999C4.06666 2.2915 3.54166 2.85817 3.54166 5.8665V15.2498C3.54166 16.1248 3.75832 16.6082 3.95832 16.6832C4.09999 16.7415 4.51666 16.6582 5.14999 15.9832C5.59999 15.5248 6.15832 15.2748 6.73332 15.2748Z" fill="#292D32"/>
<path d="M13.3333 6.4585H6.66666C6.32499 6.4585 6.04166 6.17516 6.04166 5.8335C6.04166 5.49183 6.32499 5.2085 6.66666 5.2085H13.3333C13.675 5.2085 13.9583 5.49183 13.9583 5.8335C13.9583 6.17516 13.675 6.4585 13.3333 6.4585Z" fill="#292D32"/>
<path d="M12.5 9.7915H7.5C7.15833 9.7915 6.875 9.50817 6.875 9.1665C6.875 8.82484 7.15833 8.5415 7.5 8.5415H12.5C12.8417 8.5415 13.125 8.82484 13.125 9.1665C13.125 9.50817 12.8417 9.7915 12.5 9.7915Z" fill="#292D32"/>
</svg>
