<svg width="16" height="16" viewBox="0 0 16 16" fill="none" xmlns="http://www.w3.org/2000/svg">
<path d="M8.00004 15.1673C7.48004 15.1673 6.97337 14.9007 6.62671 14.434L5.95337 13.534C5.81337 13.3473 5.62671 13.2407 5.42671 13.2273C5.22671 13.2207 5.02671 13.3073 4.86671 13.474L4.48671 13.134L4.85337 13.474C3.89337 14.5007 3.15337 14.4207 2.80004 14.2807C2.44004 14.1407 1.83337 13.6807 1.83337 12.2007V4.69398C1.83337 1.73398 2.68671 0.833984 5.48004 0.833984H10.52C13.3134 0.833984 14.1667 1.73398 14.1667 4.69398V12.2007C14.1667 13.674 13.56 14.134 13.2 14.2807C12.8467 14.4207 12.1134 14.5007 11.1467 13.474C10.9867 13.3007 10.7934 13.2073 10.58 13.2273C10.38 13.2407 10.1867 13.3473 10.0467 13.534L9.37337 14.434C9.02671 14.9007 8.52004 15.1673 8.00004 15.1673ZM5.38671 12.2207C5.41337 12.2207 5.44671 12.2207 5.47337 12.2207C5.96671 12.2473 6.43337 12.5073 6.74671 12.9273L7.42004 13.8273C7.74671 14.2607 8.24671 14.2607 8.57337 13.8273L9.24671 12.9273C9.56671 12.5073 10.0267 12.2473 10.5267 12.2207C11.02 12.194 11.5134 12.4007 11.8734 12.7873C12.38 13.3273 12.7134 13.394 12.8267 13.3473C12.9867 13.2807 13.16 12.894 13.16 12.2007V4.69398C13.16 2.28732 12.74 1.83398 10.5134 1.83398H5.48004C3.25337 1.83398 2.83337 2.28732 2.83337 4.69398V12.2007C2.83337 12.9007 3.00671 13.2873 3.16671 13.3473C3.28004 13.394 3.61337 13.3273 4.12004 12.7873C4.48004 12.4207 4.92671 12.2207 5.38671 12.2207Z" fill="#292D32"/>
<path d="M10.6667 5.16602H5.33337C5.06004 5.16602 4.83337 4.93935 4.83337 4.66602C4.83337 4.39268 5.06004 4.16602 5.33337 4.16602H10.6667C10.94 4.16602 11.1667 4.39268 11.1667 4.66602C11.1667 4.93935 10.94 5.16602 10.6667 5.16602Z" fill="#292D32"/>
<path d="M10 7.83398H6C5.72667 7.83398 5.5 7.60732 5.5 7.33398C5.5 7.06065 5.72667 6.83398 6 6.83398H10C10.2733 6.83398 10.5 7.06065 10.5 7.33398C10.5 7.60732 10.2733 7.83398 10 7.83398Z" fill="#292D32"/>
</svg>
