<svg width="24" height="24" viewBox="0 0 24 24" fill="none" xmlns="http://www.w3.org/2000/svg">
<path d="M11.751 1.79443C13.1037 1.49444 14.5296 1.71684 15.7031 1.99268L17.373 2.38232L17.8037 2.48975C19.911 3.04687 21.288 3.90023 22.085 5.17725L22.2344 5.43701C22.8912 6.67102 23.0023 8.20638 22.5928 10.1987L22.4971 10.6333L21.5176 14.813C21.0852 16.653 20.4158 18.0208 19.4717 18.9292C18.525 19.84 17.3115 20.2797 15.8105 20.2798C15.5479 20.2798 15.2736 20.2702 14.9795 20.2397V20.2388C14.4539 20.1981 13.8598 20.0974 13.2471 19.9468V19.9478L11.5674 19.5474C9.2514 18.9998 7.69059 18.108 6.85156 16.7544C6.01259 15.4005 5.9105 13.6086 6.45312 11.2974L7.43262 7.10693C7.62609 6.27158 7.85148 5.57182 8.12207 4.9751L8.24023 4.7251C9.11377 2.92291 10.3919 2.09588 11.751 1.79443ZM13.1201 3.3501C12.2991 3.3501 11.6365 3.51982 11.0938 3.86475C10.6189 4.16659 10.2292 4.60679 9.90527 5.19971L9.77051 5.46338C9.51457 5.99495 9.28568 6.65718 9.08691 7.4917L9.08789 7.49268L8.10742 11.6831C7.66411 13.566 7.70682 14.8896 8.30371 15.8521C8.90084 16.8147 10.0698 17.4447 11.9531 17.8931L13.6328 18.2925H13.6338L14.0293 18.3804C14.4183 18.4588 14.7878 18.5109 15.1289 18.5405H15.1299L15.3779 18.561C16.5963 18.6434 17.5063 18.4046 18.2041 17.7974C18.9527 17.1457 19.4741 16.0555 19.8525 14.4272L20.833 10.2476L20.9111 9.89404C21.247 8.27721 21.1878 7.11347 20.7373 6.25244L20.6348 6.07275C20.0924 5.19587 19.0509 4.5678 17.3311 4.12354L16.9775 4.0376L15.3076 3.64697H15.3066C14.482 3.44828 13.7501 3.3501 13.1201 3.3501Z" fill="white" stroke="white" stroke-width="0.2"/>
<path d="M8.83984 4.27197C9.16794 4.20413 9.4875 4.32912 9.68066 4.59033L9.74512 4.69189C9.87807 4.93456 9.88875 5.22573 9.77051 5.48193L9.76953 5.48389C9.51381 6.00516 9.28642 6.66791 9.09766 7.50244V7.50342L8.11719 11.6929C7.6738 13.576 7.71644 14.9003 8.31348 15.8628C8.91059 16.8253 10.0798 17.4544 11.9629 17.9028L13.6436 18.3032L14.0391 18.3901C14.4282 18.4686 14.7975 18.5206 15.1387 18.5503H15.1396L15.2715 18.5728C15.5288 18.6372 15.7391 18.8148 15.8496 19.0562L15.8965 19.1821V19.1851L15.9199 19.3169C15.9505 19.6239 15.8143 19.9236 15.5566 20.1021V20.103C14.9701 20.5029 14.2538 20.8461 13.377 21.1548L12.9912 21.2856L11.4111 21.8052H11.4102C10.2539 22.1671 9.24321 22.3501 8.33008 22.3501C7.02297 22.3501 5.9454 21.9578 5.0625 21.1479C4.29226 20.4413 3.67541 19.4219 3.17969 18.0835L2.97461 17.4907L1.69531 13.5405C0.981863 11.3297 0.935674 9.57848 1.64062 8.19678C2.34566 6.8151 3.78844 5.82825 5.98926 5.11475L7.56934 4.60498H7.57031L8.26758 4.40088C8.47489 4.34559 8.66226 4.30353 8.83984 4.27295V4.27197ZM6.52148 6.73486L6.52051 6.73584C4.74253 7.30862 3.6701 8.00463 3.17383 8.979C2.67748 9.95362 2.74266 11.2358 3.31543 13.019L4.59473 16.9692L4.70508 17.2944C5.26151 18.8795 5.93301 19.8531 6.84668 20.3208C7.82129 20.8196 9.10088 20.7578 10.8789 20.1851L12.2988 19.7173L11.5771 19.5474C9.26105 18.9997 7.70032 18.1081 6.86133 16.7544C6.02234 15.4005 5.92024 13.6087 6.46289 11.2974L7.44238 7.10693C7.49797 6.85298 7.5624 6.60531 7.63086 6.37256L6.52148 6.73486Z" fill="white" stroke="white" stroke-width="0.2"/>
<path d="M17.4901 10.5098C17.4301 10.5098 17.3701 10.4998 17.3001 10.4898L12.4501 9.25978C12.0501 9.15978 11.8101 8.74978 11.9101 8.34978C12.0101 7.94978 12.4201 7.70978 12.8201 7.80978L17.6701 9.03978C18.0701 9.13978 18.3101 9.54978 18.2101 9.94978C18.1301 10.2798 17.8201 10.5098 17.4901 10.5098Z" fill="white"/>
<path d="M14.5599 13.8899C14.4999 13.8899 14.4399 13.8799 14.3699 13.8699L11.4599 13.1299C11.0599 13.0299 10.8199 12.6199 10.9199 12.2199C11.0199 11.8199 11.4299 11.5799 11.8299 11.6799L14.7399 12.4199C15.1399 12.5199 15.3799 12.9299 15.2799 13.3299C15.1999 13.6699 14.8999 13.8899 14.5599 13.8899Z" fill="white"/>
</svg>
