<svg width="24" height="24" viewBox="0 0 24 24" fill="none" xmlns="http://www.w3.org/2000/svg">
<path d="M18.0205 1.15039L18.2588 1.15723C19.4462 1.22385 20.5588 1.71778 21.4199 2.56934H21.4209L21.5889 2.74707C22.4005 3.65148 22.8398 4.80336 22.8398 6V8.41992L22.8369 8.6084C22.8015 9.54397 22.4664 10.3351 21.9004 10.9023C21.2967 11.507 20.4376 11.8496 19.4199 11.8496H16C15.5348 11.8496 15.1504 11.4652 15.1504 11V4.00977C15.1505 3.24303 15.4508 2.52774 15.9893 1.98926C16.5277 1.45077 17.243 1.15045 18.0098 1.15039H18.0205ZM18.0098 2.84961C17.7062 2.84967 17.4115 2.96933 17.1904 3.19043C16.969 3.41184 16.8497 3.69668 16.8496 4.00977V10.1504H19.4199C19.9808 10.1504 20.4101 9.98829 20.6992 9.69922C20.9883 9.41015 21.1504 8.98084 21.1504 8.41992V6C21.1504 5.16723 20.8208 4.373 20.2295 3.77148L19.999 3.56543C19.5191 3.17694 18.937 2.93465 18.3262 2.86816L18.0186 2.84961H18.0098Z" fill="white" stroke="white" stroke-width="0.2"/>
<path d="M18 1.15039C18.4652 1.15039 18.8496 1.53477 18.8496 2C18.8496 2.46523 18.4652 2.84961 18 2.84961C17.3652 2.84961 16.8496 3.36523 16.8496 4V21C16.8496 21.7076 16.4588 22.3421 15.8252 22.6592C15.2316 22.956 14.5429 22.9198 13.9971 22.5654L13.8896 22.4902L12.1797 21.21L12.1777 21.208C12.1218 21.1633 12.0382 21.1727 11.9902 21.2207L10.3096 22.9014C9.96087 23.2395 9.49593 23.4297 9 23.4297C8.50385 23.4297 8.03782 23.2397 7.68848 22.8799V22.8789L6.0293 21.2109C5.97426 21.1559 5.89107 21.151 5.83203 21.1982L5.83008 21.2002L4.10938 22.4805C3.54955 22.9025 2.80889 22.9762 2.1748 22.6592C1.54116 22.3421 1.15039 21.7076 1.15039 21V6C1.15039 4.47113 1.58833 3.25542 2.42188 2.42188C3.25542 1.58833 4.47113 1.15039 6 1.15039H18ZM6 2.84961C4.90353 2.84961 4.122 3.10457 3.61328 3.61328C3.10457 4.122 2.84961 4.90353 2.84961 6V21C2.84961 21.0462 2.86446 21.0743 2.87988 21.0938C2.89596 21.114 2.91625 21.1286 2.9375 21.1416C2.97426 21.1592 3.0288 21.1693 3.08789 21.1221L3.08984 21.1201L4.7998 19.8398H4.80078L4.92578 19.7539C5.22515 19.567 5.56755 19.4697 5.91016 19.4697C6.39456 19.4698 6.87037 19.6494 7.23047 20.0195L8.89062 21.6895L8.91797 21.709C8.94658 21.725 8.97858 21.7305 9 21.7305C9.02859 21.7305 9.07664 21.7222 9.10938 21.6895L10.7891 20.0098L10.917 19.8936C11.5734 19.3488 12.526 19.3251 13.21 19.8496L14.9092 21.1191L14.958 21.1445C15.0035 21.1593 15.0392 21.1455 15.0586 21.1338C15.1044 21.1063 15.1504 21.0725 15.1504 21V4C15.1504 3.59153 15.2373 3.1988 15.3916 2.84961H6Z" fill="white" stroke="white" stroke-width="0.2"/>
<path d="M12 13.7598H9C8.59 13.7598 8.25 13.4198 8.25 13.0098C8.25 12.5998 8.59 12.2598 9 12.2598H12C12.41 12.2598 12.75 12.5998 12.75 13.0098C12.75 13.4198 12.41 13.7598 12 13.7598Z" fill="white"/>
<path d="M12 9.75977H9C8.59 9.75977 8.25 9.41977 8.25 9.00977C8.25 8.59977 8.59 8.25977 9 8.25977H12C12.41 8.25977 12.75 8.59977 12.75 9.00977C12.75 9.41977 12.41 9.75977 12 9.75977Z" fill="white"/>
<path d="M5.97021 10.0098C5.42021 10.0098 4.97021 9.55977 4.97021 9.00977C4.97021 8.45977 5.42021 8.00977 5.97021 8.00977C6.52021 8.00977 6.97021 8.45977 6.97021 9.00977C6.97021 9.55977 6.52021 10.0098 5.97021 10.0098Z" fill="white"/>
<path d="M5.97021 14.0098C5.42021 14.0098 4.97021 13.5598 4.97021 13.0098C4.97021 12.4598 5.42021 12.0098 5.97021 12.0098C6.52021 12.0098 6.97021 12.4598 6.97021 13.0098C6.97021 13.5598 6.52021 14.0098 5.97021 14.0098Z" fill="white"/>
</svg>
