<svg width="24" height="24" viewBox="0 0 24 24" fill="none" xmlns="http://www.w3.org/2000/svg">
<path d="M17.0002 3.15039C19.2085 3.15042 20.6832 3.48376 21.5999 4.40039C22.5164 5.31707 22.8499 6.79167 22.8499 9V15C22.8499 17.2083 22.5164 18.6829 21.5999 19.5996C20.6832 20.5162 19.2085 20.8496 17.0002 20.8496H7.00024C4.87137 20.8496 3.42693 20.5337 2.5061 19.6943C1.58324 18.853 1.21056 17.5088 1.1604 15.5225V15.5195L1.17505 15.3535C1.20446 15.1886 1.27838 15.0305 1.39966 14.9092C1.55625 14.7527 1.77074 14.6504 2.01001 14.6504C3.46429 14.6504 4.64966 13.4552 4.64966 12C4.64966 10.5448 3.46429 9.34963 2.01001 9.34961C1.81071 9.34961 1.62083 9.28032 1.46411 9.15039L1.39966 9.09082C1.22953 8.92069 1.149 8.70262 1.1604 8.47461C1.21085 6.48988 1.58368 5.14658 2.5061 4.30566C3.42693 3.46626 4.87137 3.15039 7.00024 3.15039H17.0002ZM7.00024 4.84961C6.20716 4.84961 5.56346 4.88391 5.04126 4.97266C4.51923 5.06138 4.12464 5.20425 3.82446 5.41797C3.24374 5.83146 2.98723 6.5334 2.89673 7.74023C4.86883 8.16291 6.34985 9.91177 6.34985 12C6.34985 14.0882 4.86873 15.836 2.89673 16.2588C2.98715 17.4712 3.24369 18.1736 3.82446 18.5859C4.12457 18.799 4.51927 18.9413 5.04126 19.0293C5.56347 19.1173 6.2072 19.1504 7.00024 19.1504H17.0002C17.8933 19.1504 18.5979 19.1075 19.1536 18.9902C19.7081 18.8732 20.1075 18.6833 20.3967 18.3936C20.686 18.1037 20.8751 17.7037 20.9915 17.1494C21.108 16.5941 21.1497 15.8907 21.1497 15V9C21.1497 8.10932 21.108 7.40592 20.9915 6.85059C20.8751 6.29633 20.686 5.89631 20.3967 5.60645C20.1075 5.31671 19.7081 5.12683 19.1536 5.00977C18.5979 4.89248 17.8933 4.84962 17.0002 4.84961H7.00024Z" fill="white" stroke="white" stroke-width="0.2"/>
<path d="M9 3.15039C9.46523 3.15039 9.84961 3.53477 9.84961 4V7.5C9.84961 7.96523 9.46523 8.34961 9 8.34961C8.53477 8.34961 8.15039 7.96523 8.15039 7.5V4C8.15039 3.53477 8.53477 3.15039 9 3.15039Z" fill="white" stroke="white" stroke-width="0.2"/>
<path d="M9 15.6504C9.46523 15.6504 9.84961 16.0348 9.84961 16.5V20C9.84961 20.4652 9.46523 20.8496 9 20.8496C8.53477 20.8496 8.15039 20.4652 8.15039 20V16.5C8.15039 16.0348 8.53477 15.6504 9 15.6504Z" fill="white" stroke="white" stroke-width="0.2"/>
<path d="M13.0399 15.6501C12.7999 15.6501 12.5599 15.5701 12.3599 15.4301C11.9999 15.1701 11.8199 14.7301 11.8999 14.2901L12.1099 13.1001L11.2399 12.2501C10.9199 11.9401 10.8099 11.4801 10.9399 11.0601C11.0799 10.6401 11.4399 10.3301 11.8799 10.2701L13.0799 10.0901L13.6199 9.0001C13.8199 8.6001 14.2199 8.3501 14.6599 8.3501C15.1099 8.3501 15.5099 8.6001 15.6999 9.0001L16.2399 10.0901L17.4399 10.2701C17.8799 10.3301 18.2399 10.6401 18.3799 11.0601C18.5199 11.4801 18.3999 11.9401 18.0799 12.2501L17.2099 13.1001L17.4199 14.2901C17.4999 14.7301 17.3199 15.1701 16.9599 15.4301C16.5999 15.6901 16.1299 15.7201 15.7399 15.5201L14.6699 14.9601L13.5899 15.5201C13.4199 15.6101 13.2299 15.6501 13.0399 15.6501ZM12.7699 11.6501L13.2799 12.1501C13.5599 12.4201 13.6799 12.8001 13.6199 13.1801L13.4999 13.8801L14.1299 13.5501C14.4699 13.3701 14.8699 13.3701 15.2099 13.5501L15.8399 13.8801L15.7199 13.1801C15.6599 12.7901 15.7799 12.4101 16.0599 12.1501L16.5699 11.6501L15.8699 11.5501C15.4899 11.4901 15.1599 11.2501 14.9899 10.9101L14.6799 10.2701L14.3699 10.9101C14.1999 11.2501 13.8699 11.4901 13.4899 11.5501L12.7699 11.6501Z" fill="white"/>
</svg>
