<svg width="24" height="24" viewBox="0 0 24 24" fill="none" xmlns="http://www.w3.org/2000/svg">
<path d="M18.5 11.8003C18.9652 11.8003 19.3496 12.1847 19.3496 12.6499V16.3501C19.3495 19.9466 16.0431 22.8501 12 22.8501C7.95692 22.8501 4.65051 19.9466 4.65039 16.3501V12.6499C4.65039 12.1847 5.03477 11.8003 5.5 11.8003C5.96523 11.8003 6.34961 12.1847 6.34961 12.6499C6.34961 15.1951 8.75331 17.1499 12 17.1499C15.2467 17.1499 17.6504 15.1951 17.6504 12.6499C17.6504 12.1847 18.0348 11.8003 18.5 11.8003ZM17.6338 16.7202C16.3066 18.0389 14.3026 18.8501 12 18.8501C9.69644 18.8501 7.70002 18.0394 6.36523 16.7202C6.58897 19.1812 9.01501 21.1499 12 21.1499C14.985 21.1499 17.41 19.1811 17.6338 16.7202Z" fill="white" stroke="white" stroke-width="0.2"/>
<path d="M12 1.15039C13.8211 1.15039 15.5375 1.72801 16.8896 2.78613L17.1553 3.00391L17.1562 3.00488L17.4131 3.24316C18.6607 4.45808 19.3496 6.0084 19.3496 7.65039C19.3495 8.55885 19.1316 9.43614 18.7227 10.2275L18.5352 10.5615C17.3034 12.5975 14.7873 13.8496 12 13.8496C9.21273 13.8496 6.69663 12.5975 5.46484 10.5615V10.5625C4.93522 9.69678 4.65046 8.68853 4.65039 7.65039C4.65039 5.89912 5.43412 4.25191 6.84375 3.01465L7.1084 2.79492C8.45373 1.7281 10.1791 1.15039 12 1.15039ZM12 2.84961C10.462 2.84961 9.02607 3.36236 7.95605 4.30469L7.95508 4.30566C6.91512 5.20842 6.34961 6.40213 6.34961 7.65039C6.34968 8.38146 6.54463 9.06336 6.91504 9.67773L7.10059 9.95703C8.08628 11.3161 9.92383 12.1504 12 12.1504C14.2143 12.1504 16.1574 11.1911 17.085 9.67773L17.2188 9.44434C17.5085 8.89308 17.6503 8.29105 17.6504 7.65039C17.6504 6.40266 17.0852 5.20912 16.0352 4.28613L15.8301 4.11719C14.7857 3.30023 13.4418 2.84961 12 2.84961Z" fill="white" stroke="white" stroke-width="0.2"/>
<path d="M12 1.15039C13.8211 1.15039 15.5375 1.72801 16.8896 2.78613L17.1553 3.00391L17.1562 3.00488L17.4131 3.24316C18.6607 4.45808 19.3496 6.0084 19.3496 7.65039V12.6504C19.3494 16.201 16.1681 18.8496 12 18.8496C7.83186 18.8496 4.65062 16.201 4.65039 12.6504V7.65039C4.65039 4.05382 7.95684 1.15039 12 1.15039ZM12 2.84961C8.86965 2.84961 6.34961 5.02001 6.34961 7.65039V12.6504C6.34985 15.1954 8.75348 17.1504 12 17.1504C15.2465 17.1504 17.6501 15.1954 17.6504 12.6504V7.65039C17.6504 6.40266 17.0852 5.20912 16.0352 4.28613L15.8301 4.11719C14.7857 3.30023 13.4418 2.84961 12 2.84961Z" fill="white" stroke="white" stroke-width="0.2"/>
</svg>
