<svg width="14" height="14" viewBox="0 0 14 14" fill="none" xmlns="http://www.w3.org/2000/svg">
<path d="M8.16669 1.50391C8.46108 1.50391 8.7038 1.74662 8.7038 2.04102C8.7038 2.33541 8.46108 2.57812 8.16669 2.57812H4.08368C3.26421 2.57812 2.67428 2.77756 2.28876 3.16309C1.90323 3.54861 1.7038 4.13854 1.7038 4.95801V9.04102C1.7038 9.86048 1.90323 10.4504 2.28876 10.8359C2.67429 11.2214 3.26433 11.4199 4.08368 11.4199H9.91669C10.7362 11.4199 11.3261 11.2215 11.7116 10.8359C12.0971 10.4504 12.2956 9.86048 12.2956 9.04102V6.12402C12.2958 5.82977 12.5394 5.58691 12.8337 5.58691C13.1278 5.58709 13.3706 5.82988 13.3708 6.12402V9.04102C13.3708 10.1246 13.0585 10.991 12.4626 11.5869C11.8667 12.1828 11.0003 12.4951 9.91669 12.4951H4.08368C3.00011 12.4951 2.13269 12.1828 1.5368 11.5869C0.941135 10.991 0.629578 10.1244 0.629578 9.04102V4.95801C0.629578 3.87444 0.940923 3.00701 1.5368 2.41113C2.13269 1.81525 3.00011 1.50391 4.08368 1.50391H8.16669Z" fill="#222222" stroke="#222222" stroke-width="0.2"/>
<path d="M3.73688 4.83594C3.92779 4.67764 4.20993 4.66363 4.41266 4.82715H4.41364L6.23981 6.28613L6.31891 6.34277C6.50985 6.46656 6.75131 6.53022 6.99664 6.53027C7.27709 6.53027 7.55278 6.44702 7.75348 6.28613L7.75446 6.28516L8.44293 5.7373C8.67103 5.55285 9.01242 5.58656 9.19391 5.82227H9.19489C9.38107 6.05142 9.34699 6.39705 9.10797 6.57812L9.10699 6.57715L8.42145 7.12402C8.02749 7.44974 7.50841 7.60742 6.99957 7.60742C6.49025 7.60736 5.9713 7.44964 5.57184 7.12402V7.12305L3.74664 5.66602H3.74567C3.51832 5.48129 3.47344 5.14379 3.66168 4.91211L3.73688 4.83594Z" fill="#222222" stroke="#222222" stroke-width="0.2"/>
<path d="M11.3747 1.21289C12.474 1.21289 13.3706 2.10876 13.3708 3.20801C13.3708 4.3074 12.4741 5.2041 11.3747 5.2041C10.2754 5.20392 9.37958 4.30729 9.37958 3.20801C9.37975 2.10887 10.2756 1.21307 11.3747 1.21289ZM11.3747 2.28711C10.8702 2.28729 10.454 2.70349 10.4538 3.20801C10.4538 3.71267 10.8701 4.12873 11.3747 4.12891C11.8795 4.12891 12.2956 3.71278 12.2956 3.20801C12.2954 2.70338 11.8794 2.28711 11.3747 2.28711Z" fill="#222222" stroke="#222222" stroke-width="0.2"/>
</svg>
