<svg width="16" height="16" viewBox="0 0 16 16" fill="none" xmlns="http://www.w3.org/2000/svg">
<path d="M8.04666 14.6542C7.10666 14.6542 6.16 14.2942 5.44666 13.5809L2.42666 10.5609C1.69333 9.82753 1.30666 8.8142 1.35333 7.78087L1.51333 4.44087C1.58666 2.84753 2.84666 1.58753 4.44666 1.50753L7.78 1.34753C8.82 1.30087 9.82666 1.68753 10.56 2.42087L13.58 5.44087C15.0133 6.8742 15.0133 9.2142 13.58 10.6475L10.6533 13.5742C9.93333 14.2942 8.99333 14.6542 8.04666 14.6542ZM3.13333 9.84753L6.15333 12.8675C7.2 13.9142 8.9 13.9142 9.94666 12.8675L12.8733 9.94087C13.92 8.8942 13.92 7.1942 12.8733 6.14753L9.84667 3.1342C9.31333 2.60087 8.58666 2.32087 7.82 2.3542L4.48666 2.5142C3.40666 2.56087 2.56 3.40753 2.50666 4.48753L2.34666 7.82753C2.31333 8.5742 2.6 9.3142 3.13333 9.84753Z" fill="#222222"/>
<path d="M6.33335 8.49935C5.14002 8.49935 4.16669 7.52602 4.16669 6.33268C4.16669 5.13935 5.14002 4.16602 6.33335 4.16602C7.52669 4.16602 8.50002 5.13935 8.50002 6.33268C8.50002 7.52602 7.52669 8.49935 6.33335 8.49935ZM6.33335 5.16602C5.69335 5.16602 5.16669 5.69268 5.16669 6.33268C5.16669 6.97268 5.69335 7.49935 6.33335 7.49935C6.97335 7.49935 7.50002 6.97268 7.50002 6.33268C7.50002 5.69268 6.97335 5.16602 6.33335 5.16602Z" fill="#222222"/>
<path d="M8.66667 11.833C8.54 11.833 8.41333 11.7863 8.31333 11.6863C8.12 11.493 8.12 11.173 8.31333 10.9796L10.98 8.31297C11.1733 8.11964 11.4933 8.11964 11.6867 8.31297C11.88 8.5063 11.88 8.8263 11.6867 9.01964L9.02 11.6863C8.92 11.7863 8.79333 11.833 8.66667 11.833Z" fill="#222222"/>
</svg>
