<svg width="13" height="13" viewBox="0 0 13 13" fill="none" xmlns="http://www.w3.org/2000/svg">
<path fill-rule="evenodd" clip-rule="evenodd" d="M5.28547 5.11802V4.61097C5.10949 4.58605 4.93204 4.57311 4.75429 4.57227C2.58079 4.57227 0.8125 6.34086 0.8125 8.51438C0.8125 9.84767 1.47884 11.0279 2.49534 11.7416C1.81471 11.0137 1.43632 10.0543 1.43687 9.05775C1.43687 6.91519 3.15483 5.16804 5.28547 5.11802Z" fill="#222222"/>
<path fill-rule="evenodd" clip-rule="evenodd" d="M5.37841 10.8586C6.34816 10.8586 7.13926 10.0872 7.17528 9.12578L7.17856 0.543378H8.74647C8.71299 0.364184 8.69607 0.182294 8.69585 0H6.55451L6.55093 8.58271C6.51521 9.54381 5.72381 10.315 4.75436 10.315C4.46329 10.3151 4.17662 10.2442 3.91919 10.1083C4.0854 10.3402 4.30445 10.5292 4.55819 10.6597C4.81194 10.7902 5.09309 10.8584 5.37841 10.8586ZM11.6754 3.45737V2.98038C11.0992 2.98092 10.5353 2.8133 10.053 2.49805C10.4759 2.98496 11.0452 3.32155 11.6757 3.45737" fill="#222222"/>
<path fill-rule="evenodd" clip-rule="evenodd" d="M10.0526 2.49616C9.57988 1.9553 9.31953 1.26128 9.31983 0.542969H8.74609C8.82038 0.939994 8.97446 1.31781 9.19904 1.65354C9.42361 1.98927 9.71397 2.27593 10.0526 2.49616ZM4.75425 6.7135C4.27699 6.71407 3.81944 6.9039 3.48196 7.24138C3.1445 7.57884 2.95467 8.03639 2.9541 8.51365C2.95443 8.84196 3.04445 9.16395 3.21448 9.4448C3.38451 9.72563 3.62804 9.95467 3.91878 10.1072C3.6974 9.8019 3.57821 9.43443 3.57818 9.05735C3.57864 8.58003 3.76844 8.12241 4.10593 7.78487C4.44341 7.44733 4.90101 7.25744 5.37833 7.2569C5.56382 7.2569 5.74157 7.28756 5.90949 7.34027V5.15394C5.73353 5.12902 5.55605 5.11607 5.37833 5.11523C5.34705 5.11523 5.31639 5.11702 5.28543 5.11762V6.79689C5.11365 6.74221 4.93452 6.7141 4.75425 6.7135Z" fill="#222222"/>
<path fill-rule="evenodd" clip-rule="evenodd" d="M11.6751 3.45733V5.12171C10.5645 5.12171 9.53582 4.76651 8.69558 4.16358V8.51568C8.69558 10.6892 6.92761 12.4575 4.75409 12.4575C3.91416 12.4575 3.13527 12.1925 2.49512 11.7429C2.86316 12.1398 3.3092 12.4564 3.80531 12.6729C4.30142 12.8893 4.83689 13.001 5.37815 13.0008C7.55166 13.0008 9.31996 11.2326 9.31996 9.05935V4.70725C10.188 5.33141 11.2303 5.66663 12.2995 5.66538V3.52344C12.0851 3.52344 11.8767 3.5002 11.6751 3.45703" fill="#222222"/>
<path fill-rule="evenodd" clip-rule="evenodd" d="M8.69546 8.5141V4.16203C9.56343 4.78624 10.6058 5.12145 11.675 5.12015V3.45578C11.0446 3.31982 10.4753 2.98312 10.0526 2.49616C9.71399 2.27593 9.4236 1.98927 9.19902 1.65354C8.97447 1.31781 8.82037 0.939994 8.74608 0.542969H7.17817L7.1749 9.12537C7.13888 10.0865 6.34777 10.8579 5.37803 10.8579C5.0927 10.8577 4.81155 10.7894 4.55781 10.659C4.30409 10.5285 4.08504 10.3395 3.9188 10.1076C3.62801 9.95518 3.38439 9.72616 3.21431 9.44531C3.04423 9.16445 2.95415 8.84246 2.95382 8.5141C2.95437 8.03684 3.14419 7.57929 3.48168 7.24184C3.81914 6.90435 4.27671 6.71452 4.75397 6.71395C4.93917 6.71395 5.11692 6.74434 5.28513 6.79735V5.11807C3.15448 5.16809 1.43652 6.91524 1.43652 9.0578C1.43652 10.0939 1.83907 11.0372 2.495 11.7416C3.15624 12.2071 3.94532 12.4566 4.75397 12.4559C6.92749 12.4559 8.69546 10.6876 8.69546 8.5141Z" fill="#222222"/>
</svg>
