<svg width="17" height="17" viewBox="0 0 17 17" fill="none" xmlns="http://www.w3.org/2000/svg">
<path d="M10.7171 13.5013H5.05041C4.76 13.5013 4.51916 13.2605 4.51916 12.9701C4.51916 12.6796 4.76 12.4388 5.05041 12.4388H10.7171C12.3746 12.4388 13.7275 11.0859 13.7275 9.42839C13.7275 7.77089 12.3746 6.41797 10.7171 6.41797H2.92542C2.635 6.41797 2.39417 6.17714 2.39417 5.88672C2.39417 5.5963 2.635 5.35547 2.92542 5.35547H10.7171C12.9625 5.35547 14.79 7.18297 14.79 9.42839C14.79 11.6738 12.9625 13.5013 10.7171 13.5013Z" fill="#4A4A4A"/>
<path d="M4.5546 8.1874C4.42002 8.1874 4.28544 8.13781 4.17919 8.03156L2.36585 6.21823C2.16044 6.01281 2.16044 5.67281 2.36585 5.4674L4.17919 3.65406C4.3846 3.44865 4.7246 3.44865 4.93002 3.65406C5.13544 3.85948 5.13544 4.19948 4.93002 4.4049L3.4921 5.84281L4.93002 7.28073C5.13544 7.48615 5.13544 7.82615 4.93002 8.03156C4.83085 8.13781 4.68919 8.1874 4.5546 8.1874Z" fill="#4A4A4A"/>
</svg>
