<svg width="16" height="16" viewBox="0 0 16 16" fill="none" xmlns="http://www.w3.org/2000/svg">
<g clip-path="url(#clip0_7_2782)">
<path d="M12.3726 13.0322C11.7103 11.2609 10.0025 9.99967 8.00004 9.99967C5.99762 9.99967 4.28977 11.2609 3.62748 13.0322M12.3726 13.0322C13.7781 11.81 14.6667 10.0086 14.6667 7.99967C14.6667 4.31778 11.6819 1.33301 8.00004 1.33301C4.31814 1.33301 1.33337 4.31778 1.33337 7.99967C1.33337 10.0086 2.22194 11.81 3.62748 13.0322M12.3726 13.0322C11.2021 14.0501 9.67303 14.6663 8.00004 14.6663C6.32705 14.6663 4.798 14.0501 3.62748 13.0322" stroke="#28303F" stroke-width="1.2" stroke-linejoin="round"/>
<circle cx="2" cy="2" r="2" transform="matrix(1 0 0 -1 6 8)" stroke="#28303F" stroke-width="1.2" stroke-linejoin="round"/>
</g>
<defs>
<clipPath id="clip0_7_2782">
<rect width="16" height="16" fill="white"/>
</clipPath>
</defs>
</svg>
