<svg width="16" height="16" viewBox="0 0 16 16" fill="none" xmlns="http://www.w3.org/2000/svg">
<path d="M10 15.1666H6.00004C2.38004 15.1666 0.833374 13.6199 0.833374 9.99992V5.99992C0.833374 2.37992 2.38004 0.833252 6.00004 0.833252H10C13.62 0.833252 15.1667 2.37992 15.1667 5.99992V9.99992C15.1667 13.6199 13.62 15.1666 10 15.1666ZM6.00004 1.83325C2.92671 1.83325 1.83337 2.92659 1.83337 5.99992V9.99992C1.83337 13.0733 2.92671 14.1666 6.00004 14.1666H10C13.0734 14.1666 14.1667 13.0733 14.1667 9.99992V5.99992C14.1667 2.92659 13.0734 1.83325 10 1.83325H6.00004Z" fill="#292D32"/>
<path d="M7.17339 10.9134C6.89339 10.9134 6.63339 10.8468 6.40006 10.7134C5.86673 10.4068 5.56006 9.78011 5.56006 8.98678V7.01345C5.56006 6.22678 5.86673 5.59345 6.40006 5.28678C6.93339 4.98011 7.62673 5.02678 8.31339 5.42678L10.0267 6.41345C10.7067 6.80678 11.1001 7.38678 11.1001 8.00011C11.1001 8.61345 10.7067 9.19345 10.0267 9.58678L8.31339 10.5734C7.92673 10.8001 7.53339 10.9134 7.17339 10.9134ZM7.18006 6.08678C7.07339 6.08678 6.98006 6.10678 6.90672 6.15345C6.69339 6.28011 6.56673 6.59345 6.56673 7.01345V8.98678C6.56673 9.40678 6.68672 9.72011 6.90672 9.84678C7.12006 9.97345 7.45339 9.92011 7.82006 9.70678L9.53339 8.72011C9.90006 8.50678 10.1067 8.24678 10.1067 8.00011C10.1067 7.75345 9.90006 7.48678 9.53339 7.28011L7.82006 6.29345C7.58006 6.15345 7.36006 6.08678 7.18006 6.08678Z" fill="#292D32"/>
</svg>
