<svg width="29" height="9" viewBox="0 0 29 9" fill="none" xmlns="http://www.w3.org/2000/svg">
<path fill-rule="evenodd" clip-rule="evenodd" d="M7.14324 8.61227H4.72001L2.90289 2.04091C2.81664 1.73863 2.63351 1.47139 2.36414 1.34544C1.69187 1.02892 0.95108 0.777016 0.142944 0.64997V0.396973H4.04657C4.58533 0.396973 4.98939 0.777017 5.05674 1.21839L5.99956 5.95854L8.42161 0.396973H10.7775L7.14324 8.61227ZM12.1244 8.61227H9.83583L11.7203 0.396973H14.0088L12.1244 8.61227ZM16.9697 2.67629C17.037 2.23382 17.4411 1.98082 17.9125 1.98082C18.6533 1.9173 19.4603 2.04435 20.1337 2.35977L20.5378 0.590981C19.8643 0.337984 19.1235 0.210938 18.4513 0.210938C16.2301 0.210938 14.6138 1.34888 14.6138 2.9282C14.6138 4.12966 15.7587 4.76051 16.5668 5.14055C17.4411 5.5195 17.7778 5.7725 17.7105 6.15145C17.7105 6.71987 17.037 6.97287 16.3648 6.97287C15.5566 6.97287 14.7485 6.7834 14.0089 6.46687L13.6048 8.23676C14.413 8.55219 15.2872 8.67923 16.0954 8.67923C18.586 8.74166 20.1337 7.60482 20.1337 5.89845C20.1337 3.74962 16.9697 3.62367 16.9697 2.67629V2.67629ZM28.1429 8.61227L26.3258 0.396973H24.374C23.9699 0.396973 23.5659 0.64997 23.4312 1.02892L20.0663 8.61227H22.4222L22.8924 7.4119H25.7871L26.0564 8.61227H28.1429ZM24.7108 2.60872L25.3831 5.70493H23.4986L24.7108 2.60872Z" fill="#172B85"/>
</svg>
